SplineFontDB: 3.2
FontName: MFEKSans-Regular
FullName: MFEK Sans Regular
FamilyName: MFEK Sans
Weight: Regular
Copyright: 
Version: 0.1
ItalicAngle: 0
UnderlinePosition: -200
UnderlineWidth: 100
Ascent: 1600
Descent: 400
InvalidEm: 0
LayerCount: 2
Layer: 0 0 "Back" 1
Layer: 1 0 "Fore" 0
XUID: [1021 31 -699969567 16487490]
FSType: 0
OS2Version: 0
OS2_WeightWidthSlopeOnly: 0
OS2_UseTypoMetrics: 1
CreationTime: 1460762150
ModificationTime: 1694480686
PfmFamily: 33
TTFWeight: 400
TTFWidth: 1
LineGap: 0
VLineGap: 0
OS2TypoAscent: 2500
OS2TypoAOffset: 0
OS2TypoDescent: -850
OS2TypoDOffset: 0
OS2TypoLinegap: 0
OS2WinAscent: 2500
OS2WinAOffset: 0
OS2WinDescent: 850
OS2WinDOffset: 0
HheadAscent: 2500
HheadAOffset: 0
HheadDescent: -850
HheadDOffset: 0
OS2CapHeight: 1500
OS2XHeight: 1040
OS2FamilyClass: 2053
OS2Vendor: 'it* '
OS2UnicodeRanges: 00000001.00000000.00000000.00000000
Lookup: 258 0 0 "kerning yeah boi" { "say cheese" [300,0,4] } ['kern' ('DFLT' <'dflt' > 'grek' <'dflt' > 'latn' <'dflt' > ) ]
MarkAttachClasses: 1
DEI: 91125
KernClass2: 30 23 "say cheese"
 73 A Agrave Aacute Acircumflex Atilde Adieresis Aring Amacron Abreve Aogonek
 96 D O Ograve Oacute Ocircumflex Otilde Odieresis Oslash Dcaron Dcroat Omacron Obreve Ohungarumlaut
 81 E AE Egrave Eacute Ecircumflex Edieresis Emacron Ebreve Edotaccent Eogonek Ecaron
 1 F
 39 G Gcircumflex Gbreve Gdotaccent uni0122
 104 J U Ugrave Uacute Ucircumflex Udieresis IJ Jcircumflex Utilde Umacron Ubreve Uring Uhungarumlaut Uogonek
 11 K X uni0136
 23 L Lacute uni013B Lslash
 1 P
 1 Q
 23 R Racute uni0156 Rcaron
 36 S Sacute Scircumflex Scedilla Scaron
 21 T uni0162 Tcaron Tbar
 1 V
 53 W Wcircumflex Wgrave Wacute Wdieresis uni1E86 uni1E88
 30 Y Ycircumflex Ydieresis Ygrave
 26 Z Zacute Zdotaccent Zcaron
 73 a agrave aacute acircumflex atilde adieresis aring amacron abreve aogonek

StartChar: ampersand
Encoding: 38 38 0
Width: 555
VWidth: 1920
Flags: HMW
LayerCount: 2
Fore
SplineSet
473 5 m 2
 215 1036 l 2
 189 1125 174 1175 174 1241 c 0
 174 1331 214 1405 318 1405 c 4
 422 1405 466 1336 466 1231 c 0
 466 1094 392 1013 244 948 c 0
 116 892 73 826 73 704 c 0
 73 665 92 570 110 503 c 2
 181 236 l 2
 215 107 221 25 291 25 c 0
 407 25 485 360 492 644 c 0
 492 647 495 648 498 648 c 2
 508 648 l 2
 512 648 514 646 514 642 c 0
 504 347 435 -5 291 -5 c 0
 203 -5 191 75 146 249 c 2
 84 489 l 2
 61 578 43 646 43 704 c 0
 43 858 117 916 240 975 c 0
 377 1041 436 1099 436 1226 c 0
 436 1326 401 1375 318 1375 c 4
 240 1375 204 1316 204 1241 c 0
 204 1181 234 1087 241 1056 c 2
 503 5 l 2
 504 2 505 0 501 0 c 2
 481 0 l 2
 477 0 475 2 473 5 c 2
EndSplineSet
EndChar

StartChar: period
Encoding: 46 46 1
Width: 275
VWidth: 1920
Flags: HMW
LayerCount: 2
Fore
SplineSet
148 0 m 6
 128 0 l 6
 121 0 118 3 118 10 c 6
 118 200 l 6
 118 207 121 210 128 210 c 6
 148 210 l 6
 155 210 158 207 158 200 c 6
 158 10 l 6
 158 3 155 0 148 0 c 6
EndSplineSet
EndChar

StartChar: zero
Encoding: 48 48 2
Width: 380
VWidth: 1920
Flags: HMW
LayerCount: 2
Fore
SplineSet
68 244 m 258
 68 1155 l 258
 68 1318 79 1405 190 1405 c 260
 301 1405 312 1318 312 1155 c 258
 312 244 l 258
 312 81 301 -5 190 -5 c 256
 79 -5 68 81 68 244 c 258
98 254 m 258
 98 130 103 25 190 25 c 260
 277 25 282 130 282 254 c 258
 282 1145 l 258
 282 1269 277 1375 190 1375 c 260
 103 1375 98 1269 98 1145 c 258
 98 254 l 258
EndSplineSet
EndChar

StartChar: one
Encoding: 49 49 3
Width: 232
VWidth: 1920
Flags: HMW
LayerCount: 2
Fore
SplineSet
107 1376 m 4
 115 1384 114 1400 115 1440 c 4
 115 1447 115 1450 122 1450 c 6
 124 1450 l 6
 131 1450 131 1447 131 1440 c 6
 131 10 l 6
 131 3 128 0 121 0 c 6
 111 0 l 6
 104 0 101 3 101 10 c 6
 101 1364 l 6
 101 1371 104 1373 107 1376 c 4
EndSplineSet
EndChar

StartChar: two
Encoding: 50 50 4
Width: 357
VWidth: 1920
Flags: HMW
LayerCount: 2
Fore
SplineSet
60 130 m 258
 60 482 258 668 258 967 c 258
 258 1138 l 258
 258 1323 247 1375 185 1375 c 256
 115 1375 102 1270 102 1140 c 258
 102 817 l 2
 102 813 102 812 98 812 c 2
 78 812 l 2
 74 812 72 813 72 817 c 2
 72 1140 l 258
 72 1321 101 1405 185 1405 c 256
 274 1405 288 1340 288 1135 c 258
 288 1005 l 258
 288 647 90 460 90 150 c 262
 90 30 l 257
 300 30 l 2
 304 30 305 29 305 25 c 2
 305 5 l 2
 305 1 304 0 300 0 c 2
 65 0 l 2
 61 0 60 1 60 5 c 2
 60 130 l 258
EndSplineSet
EndChar

StartChar: three
Encoding: 51 51 5
Width: 408
VWidth: 1920
Flags: HMW
LayerCount: 2
Fore
SplineSet
65 407 m 2
 85 407 l 2
 89 407 90 405 90 401 c 2
 90 164 l 2
 90 74 125 25 205 25 c 0
 280 25 318 71 318 176 c 2
 318 564 l 2
 318 649 298 700 195 700 c 2
 155 700 l 2
 151 700 150 701 150 705 c 2
 150 725 l 2
 150 729 151 730 155 730 c 2
 185 730 l 2
 273 730 292 772 292 852 c 2
 292 1243 l 2
 292 1328 273 1375 200 1375 c 0
 130 1375 108 1321 108 1225 c 2
 108 957 l 2
 108 953 106 952 102 952 c 2
 82 952 l 2
 78 952 78 953 78 957 c 2
 78 1225 l 2
 78 1342 106 1405 200 1405 c 0
 294 1405 322 1356 322 1241 c 2
 322 869 l 2
 322 744 283 710 185 710 c 1
 195 723 l 5
 318 723 348 676 348 551 c 2
 348 174 l 2
 348 54 309 -5 205 -5 c 0
 104 -5 60 50 60 164 c 2
 60 401 l 2
 60 405 61 407 65 407 c 2
EndSplineSet
EndChar

StartChar: four
Encoding: 52 52 6
Width: 425
VWidth: 1920
Flags: HMW
LayerCount: 2
Fore
SplineSet
384 430 m 2
 384 410 l 2
 384 406 383 405 379 405 c 2
 289 405 l 257
 289 5 l 2
 289 1 288 0 284 0 c 2
 264 0 l 2
 260 0 259 1 259 5 c 2
 259 405 l 257
 24 405 l 2
 20 405 19 406 19 410 c 2
 19 420 l 2
 19 424 21 431 22 435 c 2
 270 1395 l 2
 271 1398 272 1400 276 1400 c 2
 284 1400 l 2
 288 1400 289 1399 289 1395 c 2
 289 435 l 257
 379 435 l 2
 383 435 384 434 384 430 c 2
259 435 m 257
 259 1260 l 257
 46 435 l 257
 259 435 l 257
EndSplineSet
EndChar

StartChar: five
Encoding: 53 53 7
Width: 366
VWidth: 1920
Flags: HMW
LayerCount: 2
Fore
SplineSet
76 364 m 2
 96 364 l 2
 99 364 101 363 101 360 c 0
 101 91 126 25 178 25 c 0
 242 25 256 133 256 319 c 2
 256 612 l 2
 256 832 238 908 196 908 c 0
 151 908 129 827 120 659 c 0
 120 655 115 653 112 653 c 2
 86 653 l 2
 82 653 81 655 82 659 c 2
 116 1395 l 2
 117 1398 118 1400 122 1400 c 2
 332 1400 l 2
 336 1400 336 1399 336 1395 c 2
 336 1392 l 2
 336 1376 321 1370 236 1370 c 2
 145 1370 l 1
 113 690 l 1
 105 690 l 1
 112 802 126 938 196 938 c 0
 271 938 286 854 286 596 c 2
 286 294 l 2
 286 76 259 -5 178 -5 c 0
 101 -5 75 51 71 359 c 0
 71 363 72 364 76 364 c 2
EndSplineSet
EndChar

StartChar: six
Encoding: 54 54 8
Width: 421
VWidth: 1920
Flags: HMW
LayerCount: 2
Fore
SplineSet
224 764 m 260
 144 764 106 687 106 595 c 262
 106 560 l 261
 98 610 l 261
 98 722 136 794 224 794 c 260
 312 794 344 734 344 577 c 262
 344 204 l 262
 344 65 320 -5 214 -5 c 260
 76 -5 76 84 76 264 c 262
 76 1121 l 262
 76 1321 92 1405 200 1405 c 260
 308 1405 316 1322 316 1190 c 262
 316 955 l 6
 316 951 316 950 312 950 c 6
 292 950 l 6
 288 950 286 951 286 955 c 6
 286 1190 l 262
 286 1311 279 1375 200 1375 c 260
 123 1375 106 1308 106 1118 c 262
 106 211 l 262
 106 86 120 25 214 25 c 260
 294 25 314 88 314 208 c 262
 314 577 l 262
 314 719 286 764 224 764 c 260
EndSplineSet
EndChar

StartChar: seven
Encoding: 55 55 9
Width: 334
VWidth: 1920
Flags: HMW
LayerCount: 2
Fore
SplineSet
304 1395 m 2
 118 5 l 2
 116 1 114 0 110 0 c 2
 92 0 l 2
 88 0 86 2 88 5 c 2
 276 1370 l 257
 30 1370 l 2
 26 1370 26 1371 26 1375 c 2
 26 1395 l 2
 26 1399 26 1400 30 1400 c 2
 300 1400 l 2
 304 1400 306 1398 304 1395 c 2
EndSplineSet
EndChar

StartChar: eight
Encoding: 56 56 10
Width: 396
VWidth: 1920
Flags: HMW
LayerCount: 2
Fore
SplineSet
197 25 m 256
 272 25 291 68 291 171 c 258
 291 554 l 258
 291 638 282 692 197 692 c 256
 112 692 105 638 105 554 c 258
 105 171 l 258
 105 68 122 25 197 25 c 256
197 722 m 256
 252 722 280 764 280 852 c 258
 280 1243 l 258
 280 1336 251 1375 197 1375 c 256
 143 1375 114 1336 114 1243 c 258
 114 852 l 258
 114 764 142 722 197 722 c 256
213 712 m 257
 303 712 321 652 321 536 c 258
 321 174 l 258
 321 50 301 -5 197 -5 c 256
 93 -5 75 50 75 174 c 258
 75 536 l 258
 75 652 92 712 182 712 c 257
 183 702 l 257
 120 705 84 749 84 869 c 258
 84 1241 l 258
 84 1352 113 1405 197 1405 c 256
 281 1405 310 1352 310 1241 c 258
 310 869 l 258
 310 749 275 705 212 702 c 257
 213 712 l 257
EndSplineSet
EndChar

StartChar: nine
Encoding: 57 57 11
Width: 406
VWidth: 1920
Flags: HMW
LayerCount: 2
Fore
SplineSet
190 636 m 256
 270 636 308 713 308 805 c 258
 308 840 l 257
 316 790 l 257
 316 678 278 606 190 606 c 256
 102 606 70 666 70 823 c 258
 70 1196 l 258
 70 1335 94 1405 200 1405 c 256
 338 1405 338 1316 338 1136 c 258
 338 279 l 258
 338 79 314 -5 206 -5 c 256
 98 -5 74 78 74 210 c 258
 74 445 l 2
 74 449 74 450 78 450 c 2
 98 450 l 2
 102 450 104 449 104 445 c 2
 104 210 l 258
 104 89 127 25 206 25 c 256
 283 25 308 92 308 282 c 258
 308 1189 l 258
 308 1314 294 1375 200 1375 c 256
 120 1375 100 1312 100 1192 c 258
 100 823 l 258
 100 681 128 636 190 636 c 256
EndSplineSet
EndChar

StartChar: A
Encoding: 65 65 12
Width: 393
VWidth: 960
Flags: HW
AnchorPoint: "ogonek" 330 0 basechar 0
AnchorPoint: "bottom" 187 0 basechar 0
AnchorPoint: "top" 191 1400 basechar 0
LayerCount: 2
Fore
SplineSet
91 475 m 261
 288 475 l 261
 288 445 l 261
 91 445 l 261
 91 475 l 261
190 1345 m 261
 65 5 l 262
 64 2 62 0 58 0 c 262
 41 0 l 262
 37 0 37 2 38 5 c 262
 168 1395 l 262
 169 1398 171 1400 175 1400 c 262
 206 1400 l 262
 210 1400 211 1398 212 1395 c 262
 356 5 l 262
 357 2 357 0 353 0 c 262
 327 0 l 262
 323 0 321 1 320 5 c 262
 190 1345 l 261
EndSplineSet
EndChar

StartChar: B
Encoding: 66 66 13
Width: 389
VWidth: 960
Flags: HW
AnchorPoint: "top" 192 1400 basechar 0
AnchorPoint: "bottom" 192 0 basechar 0
LayerCount: 2
Fore
SplineSet
106 725 m 257
 187 725 l 258
 256 725 290 802 290 942 c 258
 290 1134 l 258
 290 1294 266 1370 187 1370 c 258
 106 1370 l 257
 106 725 l 257
202 715 m 257
 291 715 341 655 341 481 c 258
 341 264 l 258
 341 64 296 0 202 0 c 262
 81 0 l 258
 77 0 76 1 76 5 c 258
 76 1395 l 258
 76 1399 77 1400 81 1400 c 258
 192 1400 l 258
 286 1400 320 1317 320 1132 c 258
 320 939 l 258
 320 794 281 710 192 710 c 257
 202 715 l 257
192 695 m 258
 106 695 l 257
 106 30 l 257
 192 30 l 262
 286 30 311 96 311 271 c 258
 311 468 l 258
 311 623 277 695 192 695 c 258
EndSplineSet
EndChar

StartChar: C
Encoding: 67 67 14
Width: 420
VWidth: 960
Flags: HW
AnchorPoint: "top" 216 1400 basechar 0
AnchorPoint: "bottom" 226 0 basechar 0
LayerCount: 2
Fore
SplineSet
362 603 m 256
 362 563 362 525 362 490 c 0
 360 95 343 -5 199 -5 c 256
 60 -5 55 129 55 359 c 258
 55 1042 l 258
 55 1292 90 1405 214 1405 c 256
 337 1405 356 1266 357 940 c 0
 357 916 357 892 357 866 c 256
 357 862 356 862 352 862 c 258
 332 862 l 258
 328 862 327 862 327 866 c 256
 326 1229 313 1375 214 1375 c 256
 95 1375 85 1241 85 1046 c 258
 85 354 l 258
 85 169 87 25 199 25 c 256
 326 25 335 137 332 603 c 256
 332 607 333 608 337 608 c 258
 357 608 l 258
 361 608 362 607 362 603 c 256
EndSplineSet
EndChar

StartChar: D
Encoding: 68 68 15
Width: 406
VWidth: 960
Flags: HW
AnchorPoint: "top" 177 1400 basechar 0
AnchorPoint: "bottom" 162 0 basechar 0
LayerCount: 2
Fore
SplineSet
173 0 m 262
 81 0 l 262
 77 0 76 1 76 5 c 262
 76 1395 l 262
 76 1399 77 1400 81 1400 c 262
 173 1400 l 262
 296 1400 353 1275 353 1022 c 262
 353 369 l 262
 353 116 316 0 173 0 c 262
173 30 m 262
 297 30 323 155 323 364 c 262
 323 1026 l 262
 323 1235 276 1370 173 1370 c 262
 106 1370 l 261
 106 30 l 261
 173 30 l 262
EndSplineSet
EndChar

StartChar: E
Encoding: 69 69 16
Width: 370
VWidth: 960
Flags: HW
AnchorPoint: "ogonek" 300 0 basechar 0
AnchorPoint: "top" 192 1400 basechar 0
AnchorPoint: "bottom" 192 0 basechar 0
LayerCount: 2
Fore
SplineSet
106 720 m 261
 251 720 l 262
 255 720 256 719 256 715 c 262
 256 700 l 262
 256 696 255 695 251 695 c 262
 106 695 l 261
 106 30 l 261
 336 30 l 262
 340 30 341 29 341 25 c 262
 341 5 l 262
 341 1 340 0 336 0 c 262
 81 0 l 262
 77 0 76 1 76 5 c 262
 76 1395 l 262
 76 1399 77 1400 81 1400 c 262
 326 1400 l 262
 330 1400 331 1399 331 1395 c 262
 331 1375 l 262
 331 1371 330 1370 326 1370 c 262
 106 1370 l 261
 106 720 l 261
EndSplineSet
EndChar

StartChar: F
Encoding: 70 70 17
Width: 326
VWidth: 960
Flags: HW
AnchorPoint: "top" 172 1400 basechar 0
AnchorPoint: "bottom" 172 0 basechar 0
LayerCount: 2
Fore
SplineSet
106 720 m 257
 256 720 l 258
 260 720 261 719 261 715 c 258
 261 700 l 258
 261 696 260 695 256 695 c 258
 106 695 l 257
 106 5 l 258
 106 1 105 0 101 0 c 258
 81 0 l 258
 77 0 76 1 76 5 c 258
 76 1395 l 258
 76 1399 77 1400 81 1400 c 258
 301 1400 l 258
 305 1400 306 1399 306 1395 c 258
 306 1375 l 258
 306 1371 305 1370 301 1370 c 258
 106 1370 l 257
 106 720 l 257
EndSplineSet
EndChar

StartChar: G
Encoding: 71 71 18
Width: 420
VWidth: 960
Flags: HW
AnchorPoint: "top" 211 1400 basechar 0
AnchorPoint: "bottom" 212 0 basechar 0
LayerCount: 2
Fore
SplineSet
241 636 m 2
 241 655 l 2
 241 659 242 660 246 660 c 2
 357 660 l 2
 361 660 362 659 362 655 c 2
 362 5 l 2
 362 1 361 0 357 0 c 2
 352 0 l 2
 348 0 347 1 346 5 c 2
 332 520 l 1
 352 640 l 1
 342 165 313 -5 184 -5 c 0
 79 -5 55 89 55 379 c 2
 55 1022 l 2
 55 1272 79 1405 204 1405 c 0
 323 1405 344 1310 345 1124 c 0
 345 1040 345 951 347 867 c 0
 347 863 346 863 342 863 c 2
 322 863 l 2
 318 863 317 863 317 867 c 0
 313 1241 323 1375 204 1375 c 0
 98 1375 85 1221 85 1026 c 2
 85 374 l 2
 85 139 99 25 184 25 c 4
 288 25 320 176 332 638 c 1
 338 630 l 1
 246 630 l 2
 242 630 241 632 241 636 c 2
EndSplineSet
EndChar

StartChar: H
Encoding: 72 72 19
Width: 400
VWidth: 960
Flags: HW
AnchorPoint: "top" 181 1400 basechar 0
AnchorPoint: "bottom" 182 0 basechar 0
LayerCount: 2
Fore
SplineSet
307 1400 m 2
 327 1400 l 2
 331 1400 332 1399 332 1395 c 2
 332 5 l 2
 332 1 331 0 327 0 c 2
 307 0 l 2
 303 0 302 1 302 5 c 2
 302 695 l 261
 100 695 l 261
 100 5 l 2
 100 1 99 0 95 0 c 2
 75 0 l 2
 71 0 70 1 70 5 c 2
 70 1395 l 18
 70 1399 71 1400 75 1400 c 10
 95 1400 l 18
 99 1400 100 1399 100 1395 c 10
 100 720 l 257
 302 720 l 257
 302 1395 l 2
 302 1399 303 1400 307 1400 c 2
EndSplineSet
EndChar

StartChar: I
Encoding: 73 73 20
Width: 177
VWidth: 960
Flags: W
HStem: 0 21G<58 82> 1380 20G<58 82>
VStem: 55 30<5 1395>
AnchorPoint: "ogonek" 69 0 basechar 0
AnchorPoint: "top" 70 1400 basechar 0
AnchorPoint: "bottom" 69 0 basechar 0
LayerCount: 2
Fore
SplineSet
60 1400 m 10
 80 1400 l 18
 84 1400 85 1399 85 1395 c 10
 85 5 l 18
 85 1 84 0 80 0 c 10
 60 0 l 18
 56 0 55 1 55 5 c 10
 55 1395 l 18
 55 1399 56 1400 60 1400 c 10
EndSplineSet
EndChar

StartChar: J
Encoding: 74 74 21
Width: 315
VWidth: 960
Flags: HW
AnchorPoint: "top" 228 1400 basechar 0
AnchorPoint: "bottom" 129 0 basechar 0
LayerCount: 2
Fore
SplineSet
211 1400 m 2
 231 1400 l 2
 235 1400 237 1399 237 1395 c 2
 237 269 l 258
 237 56 226 -5 137 -5 c 256
 53 -5 40 57 40 239 c 258
 40 657 l 2
 40 661 42 663 46 663 c 2
 60 663 l 2
 64 663 66 661 66 657 c 2
 66 244 l 258
 66 88 76 25 137 25 c 260
 202 25 207 84 207 254 c 258
 207 1395 l 2
 207 1399 207 1400 211 1400 c 2
EndSplineSet
EndChar

StartChar: K
Encoding: 75 75 22
Width: 375
VWidth: 960
Flags: HW
AnchorPoint: "top" 166 1400 basechar 0
AnchorPoint: "bottom" 166 0 basechar 0
LayerCount: 2
Fore
SplineSet
75 1400 m 10
 95 1400 l 18
 99 1400 100 1399 100 1395 c 10
 100 5 l 18
 100 1 99 0 95 0 c 10
 75 0 l 18
 71 0 70 1 70 5 c 10
 70 1395 l 18
 70 1399 71 1400 75 1400 c 10
151 757 m 257
 170 815 l 257
 343 5 l 258
 346 1 346 0 342 0 c 2
 317 0 l 2
 313 0 309 1 308 5 c 258
 151 757 l 257
307 1395 m 258
 310 1397 312 1400 317 1400 c 2
 334 1400 l 2
 340 1400 341 1399 337 1395 c 258
 166 715 l 1
 164 723 l 1
 78 385 l 261
 75 460 l 257
 307 1395 l 258
EndSplineSet
EndChar

StartChar: L
Encoding: 76 76 23
Width: 273
VWidth: 960
Flags: HW
AnchorPoint: "top" 86 1400 basechar 0
AnchorPoint: "bottom" 166 0 basechar 0
LayerCount: 2
Fore
SplineSet
75 1400 m 2
 95 1400 l 6
 99 1400 100 1399 100 1395 c 2
 100 30 l 281
 250 30 l 2
 254 30 255 29 255 25 c 2
 255 5 l 2
 255 1 254 0 250 0 c 2
 75 0 l 2
 71 0 70 1 70 5 c 2
 70 1395 l 2
 70 1399 71 1400 75 1400 c 2
EndSplineSet
EndChar

StartChar: M
Encoding: 77 77 24
Width: 511
VWidth: 960
Flags: HW
AnchorPoint: "top" 256 1400 basechar 0
AnchorPoint: "bottom" 254 0 basechar 0
LayerCount: 2
Fore
SplineSet
95 1260 m 257
 95 5 l 2
 95 1 94 0 90 0 c 2
 75 0 l 2
 71 0 70 1 70 5 c 2
 70 1395 l 2
 70 1399 71 1400 75 1400 c 2
 99 1400 l 2
 103 1400 105 1399 106 1395 c 2
 259 134 l 257
 406 1395 l 6
 407 1399 409 1400 413 1400 c 6
 438 1400 l 2
 442 1400 443 1399 443 1395 c 2
 443 5 l 2
 443 1 442 0 438 0 c 2
 418 0 l 2
 414 0 413 1 413 5 c 2
 413 1254 l 257
 263 5 l 2
 262 1 261 0 257 0 c 2
 256 0 l 2
 252 0 250 1 249 5 c 2
 95 1260 l 257
EndSplineSet
EndChar

StartChar: N
Encoding: 78 78 25
Width: 400
VWidth: 960
Flags: HW
AnchorPoint: "top" 201 1400 basechar 0
AnchorPoint: "bottom" 196 0 basechar 0
LayerCount: 2
Fore
SplineSet
307 1400 m 6
 327 1400 l 6
 331 1400 332 1399 332 1395 c 6
 332 5 l 6
 332 1 331 0 327 0 c 6
 322 0 l 6
 318 0 314 1 313 5 c 6
 76 1388 l 5
 100 1328 l 261
 100 5 l 6
 100 1 99 0 95 0 c 6
 75 0 l 6
 71 0 70 1 70 5 c 6
 70 1395 l 6
 70 1399 71 1400 75 1400 c 6
 90 1400 l 6
 94 1400 98 1399 99 1395 c 6
 326 76 l 5
 302 136 l 261
 302 1395 l 6
 302 1399 303 1400 307 1400 c 6
EndSplineSet
EndChar

StartChar: O
Encoding: 79 79 26
Width: 415
VWidth: 960
Flags: W
HStem: -5 30<152.269 263.84> 1375 30<152.269 263.84>
VStem: 55 30<124.451 1276.3> 332 30<131.155 1269.17>
AnchorPoint: "top" 206 1400 basechar 0
AnchorPoint: "bottom" 206 0 basechar 0
LayerCount: 2
Fore
SplineSet
55 309 m 262
 55 1092 l 262
 55 1329 87 1405 208 1405 c 260
 329 1405 362 1328 362 1092 c 262
 362 309 l 262
 362 72 329 -5 208 -5 c 260
 87 -5 55 72 55 309 c 262
85 304 m 262
 85 106 112 25 208 25 c 260
 304 25 332 107 332 304 c 262
 332 1096 l 262
 332 1293 304 1375 208 1375 c 260
 112 1375 85 1294 85 1096 c 262
 85 304 l 262
EndSplineSet
EndChar

StartChar: P
Encoding: 80 80 27
Width: 355
VWidth: 960
Flags: HW
AnchorPoint: "top" 162 1400 basechar 0
AnchorPoint: "bottom" 88 0 basechar 0
LayerCount: 2
Fore
SplineSet
106 1370 m 257
 106 665 l 257
 156 665 l 258
 217 665 270 679 270 859 c 262
 270 1161 l 258
 270 1321 227 1370 146 1370 c 258
 106 1370 l 257
121 1400 m 258
 255 1400 300 1351 300 1146 c 258
 300 874 l 258
 300 669 247 635 141 635 c 262
 106 635 l 257
 106 5 l 2
 106 1 105 0 101 0 c 2
 81 0 l 2
 77 0 76 1 76 5 c 2
 76 1395 l 2
 76 1399 77 1400 81 1400 c 2
 121 1400 l 258
EndSplineSet
EndChar

StartChar: Q
Encoding: 81 81 28
Width: 510
VWidth: 960
Flags: HW
AnchorPoint: "top" 206 1400 basechar 0
AnchorPoint: "bottom" 216 0 basechar 0
LayerCount: 2
Fore
SplineSet
489 23 m 2
 489 5 l 2
 489 1 490 0 484 -2 c 0
 389 -38 332 36 342 179 c 257
 350 294 l 257
 350 119 327 -5 208 -5 c 256
 69 -5 55 119 55 294 c 258
 55 1106 l 258
 55 1301 83 1405 208 1405 c 256
 333 1405 362 1301 362 1106 c 258
 362 174 l 258
 362 72 397 -10 483 28 c 0
 488 30 489 26 489 23 c 2
332 279 m 258
 332 1122 l 258
 332 1293 302 1375 208 1375 c 256
 114 1375 85 1293 85 1122 c 258
 85 279 l 258
 85 144 99 25 208 25 c 256
 317 25 332 144 332 279 c 258
EndSplineSet
EndChar

StartChar: R
Encoding: 82 82 29
Width: 408
VWidth: 960
Flags: HW
AnchorPoint: "top" 187 1400 basechar 0
AnchorPoint: "bottom" 188 0 basechar 0
LayerCount: 2
Fore
SplineSet
106 1370 m 261
 106 720 l 261
 171 720 l 262
 236 720 291 779 291 909 c 262
 291 1161 l 262
 291 1281 276 1370 171 1370 c 262
 106 1370 l 261
171 1400 m 262
 295 1400 321 1321 321 1151 c 262
 321 929 l 262
 321 749 240 705 171 705 c 261
 171 710 l 261
 240 710 315 681 315 561 c 262
 315 234 l 262
 315 116 331 64 354 30 c 4
 358 24 358 23 358 20 c 6
 358 5 l 6
 358 1 357 0 353 0 c 6
 340 0 l 6
 336 0 335 0 332 4 c 4
 304 44 285 90 285 234 c 262
 285 576 l 262
 285 646 246 695 171 695 c 262
 106 695 l 261
 106 5 l 6
 106 1 105 0 101 0 c 6
 81 0 l 6
 77 0 76 1 76 5 c 6
 76 1395 l 6
 76 1399 77 1400 81 1400 c 6
 171 1400 l 262
EndSplineSet
EndChar

StartChar: S
Encoding: 83 83 30
Width: 374
VWidth: 960
Flags: HW
AnchorPoint: "top" 166 1400 basechar 0
AnchorPoint: "bottom" 176 0 basechar 0
LayerCount: 2
Fore
SplineSet
60 524 m 6
 80 524 l 6
 81 524 85 524 85 520 c 4
 85 434 86 339 86 258 c 4
 86 87 124 25 180 25 c 260
 233 25 297 88 297 294 c 260
 297 439 224 595 171 712 c 4
 106 855 75 971 75 1166 c 260
 75 1336 103 1405 192 1405 c 260
 285 1405 301 1328 301 1150 c 6
 301 906 l 6
 301 902 299 902 296 902 c 6
 276 902 l 6
 273 902 271 903 271 906 c 4
 271 988 271 1062 271 1146 c 4
 271 1324 251 1375 192 1375 c 260
 121 1375 105 1311 105 1166 c 260
 105 976 133 869 198 732 c 4
 255 611 327 472 327 294 c 260
 327 71 255 -5 180 -5 c 260
 109 -5 55 55 55 234 c 6
 55 520 l 6
 55 524 59 524 60 524 c 6
EndSplineSet
EndChar

StartChar: T
Encoding: 84 84 31
Width: 369
VWidth: 960
Flags: W
HStem: 0 21G<170 199> 1370 30<17 352>
VStem: 167 35<5 1370>
AnchorPoint: "top" 184 1400 basechar 0
AnchorPoint: "bottom" 184 0 basechar 0
LayerCount: 2
Fore
SplineSet
17 1400 m 2
 352 1400 l 6
 356 1400 357 1399 357 1395 c 6
 357 1375 l 6
 357 1371 356 1370 352 1370 c 6
 202 1370 l 257
 202 5 l 2
 202 1 201 0 197 0 c 2
 172 0 l 2
 168 0 167 1 167 5 c 2
 167 1370 l 257
 17 1370 l 2
 13 1370 12 1371 12 1375 c 2
 12 1395 l 2
 12 1399 13 1400 17 1400 c 2
EndSplineSet
EndChar

StartChar: U
Encoding: 85 85 32
Width: 398
VWidth: 960
Flags: HW
AnchorPoint: "ogonek" 251 20 basechar 0
AnchorPoint: "top" 203 1400 basechar 0
AnchorPoint: "bottom" 203 0 basechar 0
LayerCount: 2
Fore
SplineSet
296 174 m 258
 296 1395 l 2
 296 1399 297 1400 301 1400 c 2
 321 1400 l 2
 325 1400 326 1399 326 1395 c 2
 326 199 l 258
 326 59 285 -5 200 -5 c 256
 125 -5 74 28 74 204 c 258
 74 1395 l 2
 74 1399 75 1400 79 1400 c 2
 104 1400 l 2
 108 1400 109 1399 109 1395 c 2
 109 184 l 258
 109 64 145 25 200 25 c 256
 260 25 296 84 296 174 c 258
EndSplineSet
EndChar

StartChar: V
Encoding: 86 86 33
Width: 390
VWidth: 960
Flags: HW
AnchorPoint: "top" 202 1400 basechar 0
AnchorPoint: "bottom" 203 0 basechar 0
LayerCount: 2
Fore
SplineSet
203 55 m 261
 327 1395 l 262
 328 1398 330 1400 334 1400 c 262
 351 1400 l 262
 355 1400 355 1398 354 1395 c 262
 225 5 l 262
 224 2 222 0 218 0 c 262
 187 0 l 262
 183 0 182 2 181 5 c 262
 38 1395 l 262
 37 1398 37 1400 41 1400 c 262
 67 1400 l 262
 71 1400 73 1399 74 1395 c 262
 203 55 l 261
EndSplineSet
EndChar

StartChar: W
Encoding: 87 87 34
Width: 655
VWidth: 960
Flags: HW
AnchorPoint: "top" 337 1400 basechar 0
AnchorPoint: "bottom" 337 0 basechar 0
LayerCount: 2
Fore
SplineSet
187 55 m 257
 309 1395 l 2
 310 1398 311 1400 315 1400 c 2
 356 1400 l 2
 360 1400 362 1398 363 1395 c 2
 480 47 l 257
 597 1395 l 6
 598 1398 600 1400 604 1400 c 6
 622 1400 l 2
 626 1400 626 1398 625 1395 c 2
 501 5 l 2
 500 1 499 0 495 0 c 2
 457 0 l 2
 454 0 451 1 450 5 c 2
 332 1345 l 257
 209 5 l 2
 208 1 207 0 203 0 c 2
 165 0 l 2
 161 0 160 1 159 5 c 2
 39 1395 l 2
 38 1398 39 1400 43 1400 c 2
 66 1400 l 2
 70 1400 72 1398 73 1395 c 2
 187 55 l 257
EndSplineSet
EndChar

StartChar: X
Encoding: 88 88 35
Width: 387
VWidth: 960
Flags: HW
AnchorPoint: "top" 190 1400 basechar 0
AnchorPoint: "bottom" 191 0 basechar 0
LayerCount: 2
Fore
SplineSet
303 1400 m 2
 318 1400 l 2
 322 1400 333 1399 332 1395 c 2
 216 703 l 257
 348 5 l 2
 349 1 348 0 344 0 c 2
 318 0 l 2
 314 0 312 1 310 5 c 2
 194 666 l 257
 81 5 l 6
 78 1 77 0 73 0 c 6
 46 0 l 2
 42 0 40 1 41 5 c 2
 178 705 l 257
 57 1395 l 2
 56 1399 57 1400 61 1400 c 2
 86 1400 l 2
 90 1400 93 1399 95 1395 c 2
 200 741 l 257
 296 1395 l 2
 299 1399 299 1400 303 1400 c 2
EndSplineSet
EndChar

StartChar: Y
Encoding: 89 89 36
Width: 390
VWidth: 960
Flags: HW
AnchorPoint: "top" 197 1400 basechar 0
AnchorPoint: "bottom" 197 0 basechar 0
LayerCount: 2
Fore
SplineSet
334 1400 m 2
 351 1400 l 2
 355 1400 355 1399 353 1395 c 2
 214 625 l 257
 214 5 l 2
 214 1 212 0 208 0 c 2
 184 0 l 2
 180 0 178 1 178 5 c 2
 178 625 l 257
 39 1395 l 2
 37 1399 37 1400 41 1400 c 2
 64 1400 l 2
 68 1400 70 1399 72 1395 c 2
 199 675 l 261
 326 1395 l 2
 328 1399 330 1400 334 1400 c 2
EndSplineSet
EndChar

StartChar: Z
Encoding: 90 90 37
Width: 366
VWidth: 960
Flags: HW
AnchorPoint: "top" 204 1400 basechar 0
AnchorPoint: "bottom" 205 0 basechar 0
LayerCount: 2
Fore
SplineSet
5 5 m 6
 305 1370 l 261
 67 1370 l 6
 63 1370 62 1371 62 1375 c 6
 62 1395 l 6
 62 1399 63 1400 67 1400 c 6
 339 1400 l 6
 343 1400 344 1399 343 1395 c 6
 45 30 l 261
 322 30 l 6
 326 30 327 29 327 25 c 6
 327 5 l 6
 327 1 326 0 322 0 c 6
 9 0 l 6
 5 0 4 1 5 5 c 6
EndSplineSet
EndChar

StartChar: a
Encoding: 97 97 38
Width: 318
VWidth: 1104
Flags: HMW
AnchorPoint: "ogonek" 245 0 basechar 0
AnchorPoint: "top" 170 1050 basechar 0
AnchorPoint: "bottom" 144 0 basechar 0
LayerCount: 2
Fore
SplineSet
85 288 m 0
 85 56 111 23 150 23 c 0
 190 23 226 86 226 288 c 1
 238 264 l 1
 238 46 198 -5 142 -5 c 0
 100 -5 55 19 55 282 c 0
 55 467 97 526 150 594 c 0
 187 641 226 679 226 780 c 1
 237 766 l 1
 237 644 196 610 167 571 c 0
 120 508 85 445 85 288 c 0
226 120 m 2
 226 915 l 2
 226 997 207 1023 179 1023 c 0
 132 1023 104 975 99 722 c 0
 99 719 98 716 94 716 c 2
 77 716 l 2
 73 716 71 719 71 722 c 0
 76 993 109 1055 181 1055 c 0
 229 1055 256 1011 256 907 c 2
 256 120 l 2
 256 66 264 20 272 4 c 0
 273 1 274 0 270 0 c 2
 249 0 l 2
 245 0 241 0 240 3 c 0
 232 19 226 65 226 120 c 2
EndSplineSet
EndChar

StartChar: b
Encoding: 98 98 39
Width: 344
VWidth: 1104
Flags: HMW
LayerCount: 2
Fore
SplineSet
76 1450 m 2
 94 1450 l 2
 98 1450 100 1448 100 1444 c 2
 100 131 l 1
 85 -3 l 2
 84 -8 82 -10 78 -10 c 2
 76 -10 l 2
 72 -10 70 -7 70 -3 c 2
 70 1444 l 2
 70 1448 72 1450 76 1450 c 2
89 846 m 5
 89 1005 137 1055 198 1055 c 4
 260 1055 290 1009 290 861 c 6
 290 227 l 6
 290 53 275 -3 205 -3 c 4
 117 -3 88 149 88 294 c 5
 100 305 l 5
 100 180 130 25 203 25 c 4
 247 25 260 80 260 214 c 6
 260 873 l 6
 260 963 246 1026 189 1026 c 4
 137 1026 100 954 100 843 c 5
 89 846 l 5
EndSplineSet
EndChar

StartChar: c
Encoding: 99 99 40
Width: 317
VWidth: 1104
Flags: HMW
AnchorPoint: "top" 167 1050 basechar 0
AnchorPoint: "bottom" 181 0 basechar 0
LayerCount: 2
Fore
SplineSet
272 399 m 0
 272 326 270 252 270 182 c 0
 270 46 234 -5 162 -5 c 0
 85 -5 54 55 54 251 c 2
 54 801 l 2
 54 980 84 1054 166 1054 c 0
 229 1054 265 1004 266 878 c 0
 267 809 267 725 267 652 c 0
 267 650 266 648 262 648 c 2
 249 648 l 2
 245 648 242 649 242 651 c 0
 242 726 242 805 241 874 c 0
 240 996 204 1027 163 1027 c 0
 101 1027 84 947 84 813 c 2
 84 238 l 2
 84 66 107 23 166 23 c 0
 211 23 248 44 248 184 c 0
 248 254 248 327 250 400 c 0
 250 402 251 404 255 404 c 2
 265 404 l 2
 269 404 272 401 272 399 c 0
EndSplineSet
EndChar

StartChar: d
Encoding: 100 100 41
Width: 344
VWidth: 1104
Flags: HMW
LayerCount: 2
Fore
SplineSet
254 231 m 5
 254 70 226 -10 155 -10 c 4
 104 -10 56 31 56 215 c 6
 56 836 l 6
 56 998 91 1070 157 1070 c 4
 224 1070 256 979 256 818 c 5
 245 815 l 5
 245 936 212 1041 159 1041 c 4
 109 1041 90 951 90 848 c 6
 90 201 l 6
 90 75 117 19 167 19 c 4
 218 19 245 113 245 234 c 5
 254 231 l 5
276 1444 m 2
 276 6 l 2
 276 2 274 0 270 0 c 2
 254 0 l 2
 250 0 249 2 249 6 c 2
 249 149 l 1
 245 167 l 1
 245 1444 l 2
 245 1448 248 1450 252 1450 c 2
 270 1450 l 2
 274 1450 276 1448 276 1444 c 2
EndSplineSet
EndChar

StartChar: e
Encoding: 101 101 42
Width: 336
VWidth: 1104
Flags: HMW
AnchorPoint: "ogonek" 200 15 basechar 0
AnchorPoint: "bottom" 176 0 basechar 0
AnchorPoint: "top" 174 1050 basechar 0
LayerCount: 2
Fore
SplineSet
273 398 m 0
 271 328 270 267 267 208 c 0
 257 38 227 -10 173 -10 c 0
 100 -10 65 80 65 258 c 2
 65 793 l 2
 65 965 98 1060 174 1060 c 0
 246 1060 265 979 272 824 c 0
 278 698 277 628 277 502 c 0
 277 500 276 497 272 497 c 2
 82 497 l 1
 82 523 l 1
 250 523 l 1
 248 970 228 1033 174 1033 c 0
 118 1033 95 935 95 805 c 2
 95 245 l 2
 95 111 118 17 174 17 c 0
 233 17 244 115 252 400 c 0
 252 402 255 403 259 403 c 2
 269 403 l 2
 273 403 273 401 273 398 c 0
EndSplineSet
EndChar

StartChar: f
Encoding: 102 102 43
Width: 217
VWidth: 1104
Flags: HMW
LayerCount: 2
Fore
SplineSet
204 1025 m 2
 41 1025 l 2
 37 1025 35 1027 35 1031 c 2
 35 1044 l 2
 35 1048 37 1050 41 1050 c 2
 204 1050 l 2
 208 1050 210 1048 210 1044 c 2
 210 1031 l 2
 210 1027 208 1025 204 1025 c 2
93 1315 m 6
 93 1434 100 1476 203 1461 c 4
 209 1460 210 1458 210 1454 c 6
 210 1442 l 6
 210 1438 207 1436 200 1437 c 4
 121 1448 124 1398 124 1315 c 6
 124 6 l 6
 124 2 121 0 117 0 c 6
 99 0 l 6
 95 0 93 2 93 6 c 6
 93 1315 l 6
EndSplineSet
EndChar

StartChar: g
Encoding: 103 103 44
Width: 286
VWidth: 1104
Flags: HMW
AnchorPoint: "top" 74 1050 basechar 0
LayerCount: 2
Fore
SplineSet
242 1254 m 0
 234 1084 215 1048 187 1031 c 1
 176 1041 l 1
 201 1050 213 1092 216 1255 c 0
 216 1258 219 1260 223 1260 c 2
 236 1260 l 2
 240 1260 242 1258 242 1254 c 0
161 153 m 2
 235 133 242 39 242 -106 c 0
 242 -297 216 -360 150 -360 c 2
 140 -360 l 2
 80 -360 42 -276 42 -114 c 0
 42 25 69 118 123 156 c 1
 125 137 l 1
 87 100 73 -20 73 -115 c 0
 73 -271 110 -339 144 -339 c 2
 150 -339 l 2
 204 -339 214 -238 214 -106 c 0
 214 -7 214 105 151 121 c 2
 117 132 l 2
 76 151 52 164 52 209 c 0
 52 244 81 282 144 290 c 1
 145 281 l 1
 109 272 82 256 82 219 c 0
 82 183 100 177 126 165 c 2
 161 153 l 2
203 489 m 2
 203 855 l 2
 203 943 183 1042 143 1042 c 0
 101 1042 80 939 80 855 c 2
 80 489 l 2
 80 409 104 304 143 304 c 0
 183 304 203 404 203 489 c 2
233 502 m 2
 233 378 205 274 142 274 c 0
 71 274 50 378 50 502 c 2
 50 842 l 2
 50 970 71 1070 142 1070 c 0
 212 1070 233 970 233 842 c 2
 233 502 l 2
EndSplineSet
EndChar

StartChar: h
Encoding: 104 104 45
Width: 336
VWidth: 1104
Flags: HMW
AnchorPoint: "bottom" 172 0 basechar 0
AnchorPoint: "top" 87 1450 basechar 0
LayerCount: 2
Fore
SplineSet
78 1450 m 2
 96 1450 l 2
 100 1450 102 1448 102 1444 c 2
 102 6 l 2
 102 2 100 0 96 0 c 2
 78 0 l 2
 74 0 72 2 72 6 c 2
 72 1444 l 2
 72 1448 74 1450 78 1450 c 2
94 839 m 1
 94 967 125 1060 189 1060 c 0
 248 1060 267 1001 267 881 c 2
 267 6 l 2
 267 2 266 0 262 0 c 2
 243 0 l 2
 239 0 238 2 238 6 c 2
 238 881 l 2
 238 963 231 1033 181 1033 c 4
 133 1033 102 926 102 805 c 1
 94 839 l 1
EndSplineSet
EndChar

StartChar: i
Encoding: 105 105 46
Width: 168
VWidth: 1104
Flags: HMW
AnchorPoint: "bottom" 84 0 basechar 0
AnchorPoint: "ogonek" 84 0 basechar 0
LayerCount: 2
Fore
SplineSet
99 1426 m 2
 99 1216 l 2
 99 1212 98 1210 94 1210 c 2
 75 1210 l 2
 71 1210 69 1212 69 1216 c 2
 69 1426 l 2
 69 1430 71 1431 75 1431 c 2
 94 1431 l 2
 98 1431 99 1430 99 1426 c 2
99 1044 m 6
 99 6 l 6
 99 2 98 0 94 0 c 6
 75 0 l 6
 71 0 69 2 69 6 c 6
 69 1044 l 6
 69 1048 71 1050 75 1050 c 6
 94 1050 l 6
 98 1050 99 1048 99 1044 c 6
EndSplineSet
EndChar

StartChar: j
Encoding: 106 106 47
Width: 168
VWidth: 1104
Flags: HMW
LayerCount: 2
Fore
SplineSet
100 1426 m 2
 100 1216 l 2
 100 1212 98 1210 94 1210 c 2
 75 1210 l 2
 71 1210 70 1212 70 1216 c 2
 70 1426 l 2
 70 1430 71 1431 75 1431 c 2
 94 1431 l 2
 98 1431 100 1430 100 1426 c 2
100 -55 m 6
 100 -174 87 -223 -26 -202 c 4
 -31 -201 -32 -200 -32 -196 c 6
 -32 -180 l 6
 -32 -176 -30 -175 -26 -176 c 4
 61 -193 70 -158 70 -74 c 6
 70 1044 l 6
 70 1048 71 1050 75 1050 c 6
 94 1050 l 6
 98 1050 100 1048 100 1044 c 6
 100 -55 l 6
EndSplineSet
EndChar

StartChar: k
Encoding: 107 107 48
Width: 298
VWidth: 1104
Flags: HMW
LayerCount: 2
Fore
SplineSet
76 1450 m 6
 94 1450 l 6
 98 1450 100 1448 100 1444 c 6
 100 6 l 6
 100 2 98 0 94 0 c 6
 76 0 l 6
 72 0 70 2 70 6 c 6
 70 1444 l 6
 70 1448 72 1450 76 1450 c 6
83 412 m 5
 234 1044 l 6
 236 1049 240 1050 244 1050 c 6
 258 1050 l 6
 262 1050 265 1049 262 1044 c 6
 90 367 l 5
 83 412 l 5
145 661 m 5
 159 709 l 5
 270 6 l 6
 272 2 272 1 268 0 c 6
 248 0 l 6
 243 0 240 2 239 6 c 6
 145 661 l 5
EndSplineSet
EndChar

StartChar: l
Encoding: 108 108 49
Width: 174
VWidth: 1104
Flags: HMW
LayerCount: 2
Fore
SplineSet
78 1450 m 6
 97 1450 l 6
 101 1450 102 1448 102 1444 c 6
 102 6 l 6
 102 2 101 0 97 0 c 6
 78 0 l 6
 74 0 72 2 72 6 c 6
 72 1444 l 6
 72 1448 74 1450 78 1450 c 6
EndSplineSet
EndChar

StartChar: m
Encoding: 109 109 50
Width: 465
VWidth: 1104
Flags: HMW
LayerCount: 2
Fore
SplineSet
242 839 m 1
 242 983 264 1060 323 1060 c 0
 371 1060 395 1000 395 885 c 2
 395 6 l 2
 395 2 393 0 389 0 c 2
 370 0 l 2
 366 0 365 2 365 6 c 2
 365 885 l 2
 365 965 350 1031 313 1031 c 4
 277 1031 249 939 249 805 c 1
 242 839 l 1
78 1050 m 2
 92 1050 l 2
 96 1050 98 1048 98 1044 c 2
 98 917 l 1
 103 901 l 1
 103 6 l 2
 103 2 102 0 98 0 c 2
 78 0 l 2
 74 0 72 2 72 6 c 2
 72 1044 l 2
 72 1048 74 1050 78 1050 c 2
93 842 m 1
 93 979 121 1060 178 1060 c 0
 229 1060 249 1000 249 885 c 2
 249 6 l 2
 249 2 247 0 243 0 c 2
 225 0 l 2
 221 0 219 2 219 6 c 2
 219 885 l 2
 219 963 206 1031 169 1031 c 4
 133 1031 103 936 103 805 c 1
 93 842 l 1
EndSplineSet
EndChar

StartChar: n
Encoding: 110 110 51
Width: 336
VWidth: 1104
Flags: HMW
AnchorPoint: "bottom" 168 0 basechar 0
AnchorPoint: "top" 190 1050 basechar 0
LayerCount: 2
Fore
SplineSet
78 1050 m 6
 94 1050 l 6
 98 1050 99 1048 99 1044 c 6
 99 902 l 5
 102 886 l 5
 102 6 l 6
 102 2 100 0 96 0 c 6
 78 0 l 6
 74 0 72 2 72 6 c 6
 72 1044 l 6
 72 1048 74 1050 78 1050 c 6
94 839 m 5
 94 967 117 1060 189 1060 c 4
 248 1060 267 1001 267 881 c 6
 267 6 l 6
 267 2 266 0 262 0 c 6
 243 0 l 6
 239 0 238 2 238 6 c 6
 238 881 l 6
 238 963 231 1033 181 1033 c 4
 133 1033 102 926 102 805 c 5
 94 839 l 5
EndSplineSet
EndChar

StartChar: o
Encoding: 111 111 52
Width: 349
VWidth: 1104
Flags: HMW
AnchorPoint: "top" 174 1050 basechar 0
AnchorPoint: "bottom" 174 0 basechar 0
LayerCount: 2
Fore
SplineSet
61 221 m 6
 61 831 l 6
 61 998 103 1060 175 1060 c 4
 247 1060 290 998 290 831 c 6
 290 221 l 6
 290 54 247 -10 175 -10 c 4
 103 -10 61 54 61 221 c 6
92 208 m 6
 92 87 121 18 175 18 c 4
 229 18 258 87 258 208 c 6
 258 843 l 6
 258 964 229 1032 175 1032 c 4
 121 1032 92 964 92 843 c 6
 92 208 l 6
EndSplineSet
EndChar

StartChar: p
Encoding: 112 112 53
Width: 344
VWidth: 1104
Flags: HMW
LayerCount: 2
Fore
SplineSet
92 829 m 5
 92 990 120 1070 191 1070 c 4
 242 1070 290 1029 290 845 c 6
 290 224 l 6
 290 62 255 -10 189 -10 c 4
 122 -10 90 81 90 242 c 5
 101 245 l 5
 101 124 134 19 187 19 c 4
 237 19 256 109 256 212 c 6
 256 859 l 6
 256 985 229 1041 179 1041 c 4
 128 1041 101 947 101 826 c 5
 92 829 l 5
70 -388 m 6
 70 1044 l 6
 70 1048 72 1050 76 1050 c 6
 92 1050 l 6
 96 1050 98 1048 98 1044 c 6
 98 901 l 5
 101 883 l 5
 101 -388 l 6
 101 -392 98 -394 94 -394 c 6
 77 -394 l 6
 73 -394 70 -392 70 -388 c 6
EndSplineSet
EndChar

StartChar: q
Encoding: 113 113 54
Width: 344
VWidth: 1104
Flags: HMW
LayerCount: 2
Fore
SplineSet
270 -360 m 2
 252 -360 l 2
 248 -360 246 -358 246 -354 c 2
 246 919 l 1
 261 1053 l 2
 262 1058 264 1060 268 1060 c 2
 270 1060 l 2
 274 1060 276 1057 276 1053 c 2
 276 -354 l 2
 276 -358 274 -360 270 -360 c 2
257 206 m 1
 257 47 209 -3 148 -3 c 0
 86 -3 56 43 56 191 c 2
 56 825 l 2
 56 999 71 1055 141 1055 c 0
 229 1055 258 903 258 758 c 1
 246 747 l 1
 246 872 216 1027 143 1027 c 0
 99 1027 86 972 86 838 c 2
 86 179 l 2
 86 89 100 26 157 26 c 0
 209 26 246 98 246 209 c 1
 257 206 l 1
EndSplineSet
EndChar

StartChar: r
Encoding: 114 114 55
Width: 223
VWidth: 1104
Flags: HMW
AnchorPoint: "top" 152 1050 basechar 0
AnchorPoint: "bottom" 85 0 basechar 0
LayerCount: 2
Fore
SplineSet
76 1050 m 10
 89 1050 l 2
 93 1050 96 1048 96 1044 c 2
 96 746 l 1
 100 741 l 1
 100 6 l 2
 100 2 98 0 94 0 c 2
 76 0 l 2
 72 0 70 2 70 6 c 2
 70 1044 l 2
 70 1048 72 1050 76 1050 c 10
88 717 m 1
 88 898 121 1063 201 1056 c 0
 208 1055 210 1054 210 1050 c 2
 210 1035 l 2
 210 1031 208 1030 200 1030 c 0
 129 1032 100 857 100 692 c 1
 88 717 l 1
EndSplineSet
EndChar

StartChar: s
Encoding: 115 115 56
Width: 316
VWidth: 1104
Flags: HMW
AnchorPoint: "top" 159 1050 basechar 0
AnchorPoint: "bottom" 156 0 basechar 0
LayerCount: 2
Fore
SplineSet
59 393 m 2
 73 393 l 2
 77 393 79 391 79 387 c 0
 79 336 80 269 81 199 c 0
 83 59 109 18 154 18 c 0
 208 18 232 111 232 222 c 0
 232 475 63 525 63 843 c 0
 63 1022 105 1070 160 1070 c 4
 225 1070 246 1001 250 842 c 0
 251 791 253 745 253 677 c 0
 253 673 252 672 248 672 c 2
 234 672 l 2
 230 672 227 674 227 678 c 0
 227 736 226 772 225 824 c 0
 222 955 211 1042 160 1042 c 4
 112 1042 92 967 92 843 c 0
 92 540 263 481 263 222 c 0
 263 62 216 -10 161 -10 c 0
 100 -10 57 18 55 177 c 0
 54 257 54 342 54 388 c 0
 54 392 55 393 59 393 c 2
EndSplineSet
EndChar

StartChar: t
Encoding: 116 116 57
Width: 215
VWidth: 1104
Flags: HMW
AnchorPoint: "bottom" 145 0 basechar 0
LayerCount: 2
Fore
SplineSet
198 1025 m 2
 32 1025 l 2
 28 1025 26 1027 26 1031 c 2
 26 1044 l 2
 26 1048 28 1050 32 1050 c 2
 198 1050 l 2
 202 1050 204 1048 204 1044 c 2
 204 1031 l 2
 204 1027 202 1025 198 1025 c 2
204 18 m 2
 204 6 l 2
 204 2 203 1 198 0 c 4
 104 -14 89 26 89 146 c 6
 89 1243 l 2
 89 1247 90 1249 94 1249 c 2
 111 1249 l 2
 115 1249 118 1247 118 1243 c 2
 118 146 l 2
 118 63 116 10 196 22 c 0
 202 23 204 21 204 18 c 2
EndSplineSet
EndChar

StartChar: u
Encoding: 117 117 58
Width: 336
VWidth: 1104
Flags: HMW
AnchorPoint: "ogonek" 235 0 basechar 0
AnchorPoint: "bottom" 162 0 basechar 0
AnchorPoint: "top" 170 1050 basechar 0
LayerCount: 2
Fore
SplineSet
260 0 m 2
 244 0 l 2
 240 0 239 2 239 6 c 2
 239 148 l 1
 236 164 l 1
 236 1044 l 2
 236 1048 239 1050 243 1050 c 2
 260 1050 l 2
 264 1050 267 1048 267 1044 c 2
 267 6 l 2
 267 2 264 0 260 0 c 2
244 211 m 1
 244 83 221 -10 149 -10 c 0
 90 -10 72 49 72 169 c 2
 72 1044 l 2
 72 1048 72 1050 76 1050 c 2
 96 1050 l 2
 100 1050 101 1048 101 1044 c 2
 101 169 l 2
 101 87 107 17 157 17 c 0
 205 17 236 124 236 245 c 1
 244 211 l 1
EndSplineSet
EndChar

StartChar: v
Encoding: 118 118 59
Width: 272
VWidth: 1104
Flags: HMW
LayerCount: 2
Fore
SplineSet
143 73 m 1
 224 1044 l 2
 225 1048 228 1050 232 1050 c 2
 244 1050 l 2
 248 1050 250 1048 250 1044 c 2
 161 6 l 2
 159 1 157 0 153 0 c 2
 126 0 l 2
 122 0 120 2 118 6 c 2
 23 1044 l 2
 23 1048 24 1050 28 1050 c 2
 43 1050 l 2
 47 1050 49 1048 49 1044 c 2
 143 73 l 1
EndSplineSet
EndChar

StartChar: w
Encoding: 119 119 60
Width: 440
VWidth: 1104
Flags: HMW
LayerCount: 2
Fore
SplineSet
317 56 m 1
 387 1044 l 2
 388 1048 390 1050 394 1050 c 2
 408 1050 l 2
 412 1050 414 1048 413 1044 c 2
 336 6 l 2
 335 2 333 0 329 0 c 2
 301 0 l 2
 298 0 294 1 293 6 c 2
 224 971 l 1
 158 6 l 2
 157 1 155 0 151 0 c 2
 121 0 l 6
 117 0 115 1 114 6 c 6
 29 1044 l 2
 28 1048 28 1050 32 1050 c 2
 47 1050 l 2
 51 1050 53 1048 54 1044 c 2
 138 56 l 1
 206 1044 l 2
 207 1048 209 1050 213 1050 c 2
 233 1050 l 2
 236 1050 240 1048 240 1044 c 2
 317 56 l 1
EndSplineSet
EndChar

StartChar: x
Encoding: 120 120 61
Width: 286
VWidth: 1104
Flags: HMW
LayerCount: 2
Fore
SplineSet
54 0 m 2
 34 0 l 2
 30 0 29 1 30 6 c 2
 125 540 l 1
 32 1044 l 2
 31 1049 33 1050 37 1050 c 2
 57 1050 l 2
 61 1050 61 1049 62 1044 c 2
 144 589 l 1
 222 1044 l 2
 223 1049 224 1050 228 1050 c 2
 249 1050 l 2
 253 1050 254 1049 253 1044 c 2
 163 548 l 5
 249 6 l 2
 250 1 248 0 244 0 c 2
 221 0 l 2
 217 0 216 1 215 6 c 2
 144 507 l 1
 60 6 l 2
 59 1 58 0 54 0 c 2
EndSplineSet
EndChar

StartChar: y
Encoding: 121 121 62
Width: 300
VWidth: 1104
Flags: HMW
AnchorPoint: "top" 169 1050 basechar 0
LayerCount: 2
Fore
SplineSet
163 58 m 5
 244 1044 l 2
 245 1048 247 1050 251 1050 c 2
 267 1050 l 2
 271 1050 271 1048 270 1044 c 2
 174 -64 l 2
 156 -222 133 -220 54 -208 c 0
 47 -207 45 -205 45 -201 c 2
 45 -182 l 2
 45 -178 47 -177 52 -178 c 0
 120 -195 135 -198 152 -54 c 1
 45 1044 l 2
 44 1048 44 1050 48 1050 c 2
 64 1050 l 2
 68 1050 70 1048 71 1044 c 2
 163 58 l 5
EndSplineSet
EndChar

StartChar: z
Encoding: 122 122 63
Width: 269
VWidth: 1104
Flags: HMW
AnchorPoint: "top" 153 1050 basechar 0
LayerCount: 2
Fore
SplineSet
36 6 m 2
 206 1022 l 1
 68 1022 l 2
 63 1022 62 1022 62 1027 c 2
 62 1044 l 2
 62 1047 63 1050 68 1050 c 2
 233 1050 l 2
 237 1050 239 1049 238 1044 c 2
 69 28 l 1
 229 28 l 2
 233 28 235 27 235 23 c 2
 235 6 l 2
 235 2 233 0 229 0 c 2
 40 0 l 2
 36 0 35 1 36 6 c 2
EndSplineSet
EndChar

StartChar: comma
Encoding: 44 44 65
Width: 275
VWidth: 1920
Flags: HMW
LayerCount: 2
Fore
SplineSet
104 -210 m 6
 102 -210 l 6
 95 -210 94 -208 96 -200 c 6
 134 0 l 261
 128 0 l 6
 119 0 118 1 118 10 c 6
 118 200 l 6
 118 207 121 210 128 210 c 6
 148 210 l 6
 155 210 158 207 158 200 c 6
 158 20 l 6
 158 13 158 7 156 0 c 6
 114 -200 l 6
 112 -209 110 -210 104 -210 c 6
EndSplineSet
EndChar

StartChar: exclam
Encoding: 33 33 67
Width: 275
VWidth: 1920
Flags: HMW
LayerCount: 2
Fore
SplineSet
148 0 m 2
 128 0 l 2
 121 0 118 3 118 10 c 2
 118 200 l 2
 118 207 121 210 128 210 c 2
 148 210 l 2
 155 210 158 207 158 200 c 2
 158 10 l 2
 158 3 155 0 148 0 c 2
122 950 m 6
 122 1440 l 6
 122 1447 125 1450 132 1450 c 6
 142 1450 l 6
 149 1450 152 1447 152 1440 c 6
 152 950 l 6
 152 943 153 857 152 850 c 6
 148 440 l 6
 148 433 145 430 138 430 c 6
 136 430 l 6
 129 430 126 433 126 440 c 6
 124 850 l 6
 124 857 122 943 122 950 c 6
EndSplineSet
EndChar

StartChar: quotesingle
Encoding: 39 39 70
Width: 275
VWidth: 1920
Flags: HMW
LayerCount: 2
Fore
SplineSet
140 930 m 2
 136 930 l 2
 129 930 127 933 126 940 c 2
 124 1150 l 6
 124 1187 122 1203 122 1230 c 6
 122 1410 l 2
 122 1417 125 1420 132 1420 c 2
 142 1420 l 2
 149 1420 152 1417 152 1410 c 2
 152 1230 l 6
 152 1203 152 1187 152 1150 c 6
 150 940 l 2
 149 933 147 930 140 930 c 2
EndSplineSet
EndChar

StartChar: question
Encoding: 63 63 71
Width: 396
VWidth: 1920
Flags: HMW
LayerCount: 2
Fore
SplineSet
198 0 m 6
 178 0 l 6
 171 0 168 3 168 10 c 6
 168 200 l 6
 168 207 171 210 178 210 c 6
 198 210 l 6
 205 210 208 207 208 200 c 6
 208 10 l 6
 208 3 205 0 198 0 c 6
190 400 m 6
 188 400 l 6
 184 400 182 401 182 404 c 4
 181 585 276 645 276 982 c 262
 276 1233 l 262
 276 1333 256 1437 198 1437 c 260
 128 1437 120 1321 120 1225 c 262
 120 957 l 6
 120 953 120 952 116 952 c 6
 96 952 l 6
 92 952 90 953 90 957 c 6
 90 1225 l 262
 90 1337 104 1467 198 1467 c 260
 286 1467 306 1345 306 1235 c 262
 306 994 l 262
 306 687 195 557 196 404 c 4
 196 401 193 400 190 400 c 6
EndSplineSet
EndChar

StartChar: parenleft
Encoding: 40 40 72
Width: 295
VWidth: 2048
Flags: HMW
LayerCount: 2
Fore
SplineSet
75 1219 m 258
 75 1421 105 1581 245 1609 c 0
 249 1610 250 1609 250 1605 c 2
 250 1600 l 2
 250 1597 248 1594 245 1593 c 0
 136 1562 105 1429 105 1229 c 258
 105 16 l 258
 105 -184 136 -317 245 -348 c 4
 248 -349 250 -352 250 -355 c 2
 250 -360 l 2
 250 -364 249 -365 245 -364 c 0
 105 -336 75 -176 75 26 c 258
 75 1219 l 258
EndSplineSet
EndChar

StartChar: parenright
Encoding: 41 41 73
Width: 294
VWidth: 2048
Flags: HMW
LayerCount: 2
Fore
SplineSet
259 26 m 258
 259 -176 190 -336 50 -364 c 0
 46 -365 45 -364 45 -360 c 2
 45 -355 l 2
 45 -352 46 -349 49 -348 c 0
 158 -317 229 -184 229 16 c 258
 229 1229 l 258
 229 1429 158 1562 49 1593 c 4
 46 1594 45 1597 45 1600 c 6
 45 1605 l 2
 45 1609 46 1610 50 1609 c 0
 190 1581 259 1421 259 1219 c 258
 259 26 l 258
EndSplineSet
EndChar

StartChar: asterisk
Encoding: 42 42 74
Width: 500
VWidth: 2048
Flags: HMW
LayerCount: 2
Fore
SplineSet
251 1205 m 261
 248 1215 l 261
 410 1283 l 6
 414 1284 415 1285 419 1286 c 6
 444 1290 l 6
 448 1291 450 1289 451 1285 c 6
 457 1267 l 6
 458 1263 458 1262 454 1261 c 6
 431 1250 l 6
 427 1249 426 1247 422 1246 c 6
 251 1205 l 261
245 1207 m 257
 254 1213 l 257
 368 1080 l 2
 370 1077 372 1075 374 1072 c 2
 385 1049 l 2
 387 1046 387 1044 384 1042 c 2
 368 1030 l 2
 365 1028 363 1029 361 1032 c 2
 343 1049 l 2
 341 1052 339 1055 337 1058 c 2
 245 1207 l 257
245 1213 m 257
 254 1207 l 257
 162 1057 l 2
 160 1054 159 1052 157 1049 c 2
 139 1031 l 2
 137 1028 134 1028 131 1030 c 2
 115 1042 l 2
 112 1044 112 1046 114 1049 c 2
 126 1071 l 2
 128 1074 130 1076 132 1079 c 2
 245 1213 l 257
251 1215 m 257
 248 1205 l 257
 77 1246 l 2
 73 1247 72 1248 68 1249 c 2
 45 1260 l 2
 41 1261 41 1263 42 1267 c 2
 48 1285 l 2
 49 1289 50 1290 54 1289 c 2
 79 1285 l 2
 83 1284 85 1283 89 1282 c 2
 251 1215 l 257
255 1210 m 257
 244 1210 l 257
 230 1385 l 2
 230 1389 230 1391 230 1395 c 2
 234 1420 l 2
 234 1424 236 1425 240 1425 c 2
 259 1425 l 2
 263 1425 264 1424 264 1420 c 2
 268 1395 l 2
 268 1391 268 1389 268 1385 c 2
 255 1210 l 257
EndSplineSet
EndChar

StartChar: at
Encoding: 64 64 75
Width: 770
VWidth: 1920
Flags: HMW
LayerCount: 2
Fore
SplineSet
473 199 m 257
 473 84 448 -5 370 -5 c 256
 306 -5 278 61 278 211 c 258
 278 838 l 258
 278 998 301 1055 365 1055 c 260
 434 1055 479 966 479 851 c 257
 462 841 l 257
 462 946 418 1025 370 1025 c 256
 316 1025 308 956 308 851 c 258
 308 199 l 258
 308 94 331 25 375 25 c 256
 433 25 462 104 462 209 c 257
 473 199 l 257
566 -312 m 0
 532 -342 472 -365 392 -365 c 256
 148 -365 90 -191 90 49 c 258
 90 990 l 258
 90 1245 168 1405 392 1405 c 256
 640 1405 680 1232 680 1016 c 258
 680 235 l 258
 680 55 652 -5 574 -5 c 256
 496 -5 462 55 462 165 c 258
 462 941 l 257
 473 1061 l 2
 473 1064 475 1067 479 1067 c 2
 486 1067 l 2
 490 1067 492 1065 492 1061 c 2
 492 185 l 258
 492 88 510 25 574 25 c 256
 628 25 650 95 650 235 c 258
 650 1016 l 258
 650 1226 600 1375 392 1375 c 256
 194 1375 120 1226 120 996 c 258
 120 45 l 258
 120 -165 168 -335 392 -335 c 256
 468 -335 515 -312 551 -284 c 0
 555 -281 557 -282 558 -286 c 2
 568 -303 l 2
 569 -307 569 -309 566 -312 c 0
EndSplineSet
EndChar

StartChar: dollar
Encoding: 36 36 76
Width: 374
VWidth: 960
Flags: HMW
LayerCount: 2
Fore
SplineSet
60 524 m 2
 80 524 l 2
 81 524 84.9847330468 523.999941729 85 520 c 2
 86 258 l 6
 86.6526622478 87.0024910773 124 25 180 25 c 256
 233 25 297 88 297 294 c 256
 297 439 224 595 171 712 c 0
 106 855 75 971 75 1166 c 256
 75 1336 103 1405 192 1405 c 256
 285 1405 301 1328 301 1150 c 2
 301 906 l 2
 301 902 299 902 296 902 c 2
 276 902 l 2
 273 902 271 903 271 906 c 2
 271 1146 l 2
 271 1324 251 1375 192 1375 c 256
 121 1375 105 1311 105 1166 c 256
 105 976 133 869 198 732 c 0
 255 611 327 472 327 294 c 256
 327 71 255 -5 180 -5 c 256
 109 -5 55 55 55 234 c 2
 55 520 l 2
 55 524 59 524 60 524 c 2
179 1590 m 2
 189 1590 l 2
 193 1590 194 1589 194 1585 c 2
 194 -185 l 2
 194 -189 193 -190 189 -190 c 2
 179 -190 l 2
 175 -190 174 -189 174 -185 c 2
 174 1585 l 2
 174 1589 175 1590 179 1590 c 2
EndSplineSet
EndChar

StartChar: numbersign
Encoding: 35 35 77
Width: 502
VWidth: 1920
Flags: HMW
LayerCount: 2
Fore
SplineSet
61 485 m 2
 401 485 l 2
 405 485 406 484 406 480 c 2
 406 460 l 2
 406 456 405 455 401 455 c 2
 61 455 l 2
 57 455 56 456 56 460 c 2
 56 480 l 2
 56 484 57 485 61 485 c 2
101 1025 m 2
 441 1025 l 2
 445 1025 446 1024 446 1020 c 2
 446 1000 l 2
 446 996 445 995 441 995 c 2
 101 995 l 2
 97 995 96 996 96 1000 c 2
 96 1020 l 2
 96 1024 97 1025 101 1025 c 2
381 1400 m 6
 401 1400 l 2
 406 1400 406 1399 405 1395 c 2
 242 5 l 2
 241 1 241 0 236 0 c 2
 216 0 l 6
 211 0 211 1 212 5 c 6
 375 1395 l 6
 376 1399 376 1400 381 1400 c 6
256 1400 m 2
 276 1400 l 2
 280 1400 281 1399 280 1395 c 2
 117 5 l 2
 116 1 115 0 111 0 c 2
 91 0 l 2
 87 0 86 1 87 5 c 2
 250 1395 l 2
 251 1399 252 1400 256 1400 c 2
EndSplineSet
EndChar

StartChar: slash
Encoding: 47 47 78
Width: 380
VWidth: 2048
Flags: HMW
LayerCount: 2
Fore
SplineSet
362 1395 m 6
 53 -95 l 6
 51 -99 50 -100 46 -100 c 6
 28 -100 l 2
 24 -100 22 -99 23 -95 c 2
 332 1395 l 2
 333 1399 336 1400 339 1400 c 2
 357 1400 l 6
 361 1400 363 1399 362 1395 c 6
EndSplineSet
EndChar

StartChar: percent
Encoding: 37 37 79
Width: 677
VWidth: 2048
Flags: HMW
LayerCount: 2
Fore
SplineSet
90 985 m 262
 90 1216 l 262
 90 1341 104 1405 192 1405 c 260
 280 1405 300 1341 300 1216 c 262
 300 985 l 262
 300 860 280 795 192 795 c 260
 104 795 90 860 90 985 c 262
120 975 m 262
 120 890 128 825 192 825 c 260
 256 825 270 890 270 975 c 262
 270 1226 l 262
 270 1311 256 1375 192 1375 c 260
 128 1375 120 1311 120 1226 c 262
 120 975 l 262
377 185 m 262
 377 442 l 262
 377 567 392 631 480 631 c 260
 568 631 587 567 587 442 c 262
 587 185 l 262
 587 60 568 -5 480 -5 c 260
 392 -5 377 60 377 185 c 262
407 175 m 262
 407 90 416 25 480 25 c 260
 544 25 557 90 557 175 c 262
 557 452 l 262
 557 537 544 601 480 601 c 260
 416 601 407 537 407 452 c 262
 407 175 l 262
614 1395 m 6
 92 5 l 6
 90 1 88 0 84 0 c 6
 64 0 l 6
 60 0 60 1 62 5 c 6
 584 1395 l 6
 586 1399 588 1400 592 1400 c 6
 612 1400 l 6
 616 1400 616 1399 614 1395 c 6
EndSplineSet
EndChar

StartChar: hyphen
Encoding: 45 45 80
Width: 329
VWidth: 1920
Flags: HMW
LayerCount: 2
Fore
SplineSet
42 603 m 14
 42 622 l 22
 42 626 44 627 48 627 c 14
 282 627 l 22
 286 627 288 626 288 622 c 14
 288 603 l 22
 288 599 286 598 282 598 c 14
 48 598 l 22
 44 598 42 599 42 603 c 14
EndSplineSet
EndChar

StartChar: underscore
Encoding: 95 95 81
Width: 450
VWidth: 1920
Flags: HMW
LayerCount: 2
Fore
SplineSet
0 -24 m 14
 0 -5 l 18
 0 -1 1 0 5 0 c 10
 445 0 l 18
 449 0 450 -1 450 -5 c 10
 450 -24 l 22
 450 -28 449 -30 445 -30 c 14
 5 -30 l 22
 1 -30 0 -28 0 -24 c 14
EndSplineSet
EndChar

StartChar: plus
Encoding: 43 43 82
Width: 540
VWidth: 1920
Flags: HMW
LayerCount: 2
Fore
SplineSet
45 675 m 10
 45 697 l 18
 45 701 47 702 51 702 c 10
 489 702 l 22
 493 702 495 701 495 697 c 14
 495 675 l 22
 495 671 493 671 489 671 c 14
 51 671 l 18
 47 671 45 671 45 675 c 10
261 935 m 10
 279 935 l 18
 283 935 285 934 285 930 c 10
 285 430 l 18
 285 426 283 425 279 425 c 10
 261 425 l 18
 257 425 255 426 255 430 c 10
 255 930 l 18
 255 934 257 935 261 935 c 10
EndSplineSet
EndChar

StartChar: equal
Encoding: 61 61 83
Width: 530
VWidth: 1920
Flags: HMW
LayerCount: 2
Fore
SplineSet
45 419 m 14
 45 439 l 18
 45 443 46 444 50 444 c 10
 480 444 l 18
 484 444 485 443 485 439 c 10
 485 419 l 22
 485 415 484 414 480 414 c 14
 50 414 l 22
 46 414 45 415 45 419 c 14
45 556 m 10
 45 576 l 18
 45 580 46 581 50 581 c 10
 480 581 l 18
 484 581 485 580 485 576 c 10
 485 556 l 18
 485 552 484 551 480 551 c 10
 50 551 l 18
 46 551 45 552 45 556 c 10
EndSplineSet
EndChar

StartChar: less
Encoding: 60 60 84
Width: 489
VWidth: 1920
Flags: HMW
LayerCount: 2
Fore
SplineSet
435 362 m 6
 49 591 l 6
 46 593 45 595 45 599 c 6
 45 601 l 6
 45 605 46 607 49 609 c 6
 435 838 l 6
 438 840 439 840 439 836 c 6
 439 818 l 6
 439 814 438 812 435 810 c 6
 79 600 l 261
 435 390 l 6
 438 388 439 386 439 382 c 6
 439 364 l 6
 439 360 438 360 435 362 c 6
EndSplineSet
EndChar

StartChar: greater
Encoding: 62 62 85
Width: 489
VWidth: 1920
Flags: HMW
LayerCount: 2
Fore
SplineSet
54 838 m 6
 440 609 l 6
 443 607 444 605 444 601 c 6
 444 599 l 6
 444 595 443 593 440 591 c 6
 54 362 l 6
 51 360 50 360 50 364 c 6
 50 382 l 6
 50 386 51 388 54 390 c 6
 410 600 l 261
 54 810 l 6
 51 812 50 814 50 818 c 6
 50 836 l 6
 50 840 51 840 54 838 c 6
EndSplineSet
EndChar

StartChar: backslash
Encoding: 92 92 86
Width: 379
VWidth: 2048
Flags: HMW
LayerCount: 2
Fore
SplineSet
357 -95 m 6
 358 -99 356 -100 352 -100 c 6
 334 -100 l 2
 330 -100 329 -99 327 -95 c 2
 18 1395 l 2
 17 1399 19 1400 23 1400 c 2
 41 1400 l 6
 44 1400 47 1399 48 1395 c 6
 357 -95 l 6
EndSplineSet
EndChar

StartChar: bracketleft
Encoding: 91 91 87
Width: 275
VWidth: 1920
Flags: HMW
LayerCount: 2
Fore
SplineSet
105 1575 m 261
 105 -335 l 261
 245 -335 l 2
 249 -335 250 -336 250 -340 c 2
 250 -355 l 2
 250 -359 249 -360 245 -360 c 2
 80 -360 l 2
 76 -360 75 -359 75 -355 c 2
 75 1595 l 2
 75 1599 76 1600 80 1600 c 2
 245 1600 l 2
 249 1600 250 1599 250 1595 c 2
 250 1580 l 2
 250 1576 249 1575 245 1575 c 2
 105 1575 l 261
EndSplineSet
EndChar

StartChar: braceleft
Encoding: 123 123 88
Width: 288
VWidth: 2048
Flags: HMW
LayerCount: 2
Fore
SplineSet
118 1439 m 258
 118 1553 128 1599 232 1600 c 0
 236 1600 238 1599 238 1595 c 2
 238 1580 l 2
 238 1576 236 1575 232 1575 c 0
 172 1573 148 1556 148 1439 c 262
 148 788 l 258
 148 696 131 644 73 620 c 257
 131 596 148 544 148 452 c 258
 148 -199 l 258
 148 -305 173 -332 231 -335 c 0
 236 -335 238 -336 238 -340 c 2
 238 -355 l 2
 238 -359 236 -360 232 -360 c 0
 129 -358 118 -313 118 -199 c 258
 118 452 l 258
 118 538 99 590 51 606 c 0
 47 608 45 609 45 613 c 2
 45 627 l 2
 45 631 46 633 50 634 c 0
 100 650 118 701 118 788 c 258
 118 1439 l 258
EndSplineSet
EndChar

StartChar: bracketright
Encoding: 93 93 89
Width: 275
VWidth: 1920
Flags: HMW
LayerCount: 2
Fore
SplineSet
170 -335 m 261
 170 1575 l 257
 30 1575 l 2
 26 1575 25 1576 25 1580 c 2
 25 1595 l 2
 25 1599 26 1600 30 1600 c 2
 195 1600 l 2
 199 1600 200 1599 200 1595 c 2
 200 -355 l 2
 200 -359 199 -360 195 -360 c 2
 30 -360 l 2
 26 -360 25 -359 25 -355 c 2
 25 -340 l 6
 25 -336 26 -335 30 -335 c 6
 170 -335 l 261
EndSplineSet
EndChar

StartChar: braceright
Encoding: 125 125 90
Width: 288
VWidth: 2048
Flags: HMW
LayerCount: 2
Fore
SplineSet
170 -199 m 258
 170 -313 160 -359 56 -360 c 0
 52 -360 50 -359 50 -355 c 2
 50 -340 l 2
 50 -336 52 -335 56 -335 c 0
 116 -333 140 -316 140 -199 c 262
 140 452 l 258
 140 544 157 596 215 620 c 257
 157 644 140 696 140 788 c 258
 140 1439 l 258
 140 1545 115 1572 57 1575 c 0
 52 1575 50 1576 50 1580 c 2
 50 1595 l 2
 50 1599 52 1600 56 1600 c 0
 159 1598 170 1553 170 1439 c 258
 170 788 l 258
 170 702 189 650 237 634 c 0
 241 632 243 631 243 627 c 2
 243 613 l 2
 243 609 242 607 238 606 c 0
 188 590 170 539 170 452 c 258
 170 -199 l 258
EndSplineSet
EndChar

StartChar: bar
Encoding: 124 124 91
Width: 285
VWidth: 1920
Flags: HMW
LayerCount: 2
Fore
SplineSet
138 1600 m 10
 148 1600 l 22
 155 1600 158 1597 158 1590 c 14
 158 -350 l 22
 158 -357 155 -360 148 -360 c 14
 138 -360 l 18
 131 -360 128 -357 128 -350 c 10
 128 1590 l 18
 128 1597 131 1600 138 1600 c 10
EndSplineSet
EndChar

StartChar: asciitilde
Encoding: 126 126 92
Width: 664
VWidth: 2048
Flags: HMW
LayerCount: 2
Fore
SplineSet
207 677 m 260
 151 677 120 617 120 526 c 0
 120 523 117 522 114 522 c 2
 94 522 l 2
 90 522 90 523 90 526 c 0
 92 630 125 707 210 707 c 256
 325 707 361 534 457 534 c 256
 513 534 545 593 545 684 c 0
 545 688 547 689 550 689 c 2
 569 689 l 2
 573 689 574 688 574 684 c 0
 572 580 539 504 454 504 c 256
 339 504 303 677 207 677 c 260
EndSplineSet
EndChar

StartChar: asciicircum
Encoding: 94 94 93
Width: 386
VWidth: 1920
Flags: HMW
LayerCount: 2
Fore
SplineSet
192 1321 m 261
 66 740 l 2
 64 734 59 730 52 730 c 2
 42 730 l 2
 35 730 33 734 36 740 c 2
 178 1390 l 2
 180 1399 184 1400 191 1400 c 2
 193 1400 l 2
 200 1400 204 1399 206 1390 c 2
 348 740 l 2
 351 734 354 730 342 730 c 2
 332 730 l 2
 322 730 320 734 318 740 c 2
 192 1321 l 261
EndSplineSet
EndChar

StartChar: figuredash
Encoding: 8210 8210 108
Width: 575
VWidth: 2048
Flags: HMW
LayerCount: 2
Fore
SplineSet
40 602 m 14
 40 621 l 22
 40 625 41 627 45 627 c 14
 530 627 l 22
 534 627 535 625 535 621 c 14
 535 602 l 22
 535 598 534 598 530 598 c 14
 45 598 l 22
 41 598 40 598 40 602 c 14
EndSplineSet
EndChar

StartChar: endash
Encoding: 8211 8211 109
Width: 550
VWidth: 2048
Flags: HMW
LayerCount: 2
Fore
SplineSet
40 602 m 10
 40 621 l 18
 40 625 41 627 45 627 c 10
 505 627 l 18
 509 627 510 625 510 621 c 10
 510 602 l 18
 510 598 509 598 505 598 c 10
 45 598 l 18
 41 598 40 598 40 602 c 10
EndSplineSet
EndChar

StartChar: emdash
Encoding: 8212 8212 110
Width: 1100
VWidth: 2048
Flags: HMW
LayerCount: 2
Fore
SplineSet
40 602 m 10
 40 621 l 22
 40 625 41 627 45 627 c 14
 1055 627 l 22
 1059 627 1060 625 1060 621 c 14
 1060 602 l 18
 1060 598 1059 598 1055 598 c 10
 45 598 l 18
 41 598 40 598 40 602 c 10
EndSplineSet
EndChar

StartChar: uni2015
Encoding: 8213 8213 111
Width: 1180
VWidth: 2048
Flags: HMW
LayerCount: 2
Fore
SplineSet
40 602 m 10
 40 621 l 22
 40 625 41 627 45 627 c 14
 1135 627 l 22
 1139 627 1140 625 1140 621 c 14
 1140 602 l 18
 1140 598 1139 598 1135 598 c 10
 45 598 l 18
 41 598 40 598 40 602 c 10
EndSplineSet
EndChar

StartChar: quoteleft
Encoding: 8216 8216 114
Width: 286
VWidth: 1920
Flags: HMW
LayerCount: 2
Fore
SplineSet
177 1470 m 6
 179 1470 l 6
 186 1470 187 1468 185 1460 c 6
 147 1260 l 261
 153 1260 l 6
 162 1260 163 1259 163 1250 c 6
 163 1060 l 6
 163 1053 160 1050 153 1050 c 6
 133 1050 l 6
 126 1050 123 1053 123 1060 c 6
 123 1240 l 6
 123 1247 123 1253 125 1260 c 6
 167 1460 l 6
 169 1469 171 1470 177 1470 c 6
EndSplineSet
EndChar

StartChar: quotereversed
Encoding: 8219 8219 117
Width: 286
VWidth: 1920
Flags: HMW
LayerCount: 2
Fore
SplineSet
177 1000 m 2
 171 1000 169 1001 167 1010 c 2
 125 1210 l 2
 123 1217 123 1223 123 1230 c 2
 123 1410 l 2
 123 1417 126 1420 133 1420 c 2
 153 1420 l 2
 160 1420 163 1417 163 1410 c 2
 163 1220 l 2
 163 1211 162 1210 153 1210 c 2
 147 1210 l 257
 185 1010 l 2
 187 1002 186 1000 179 1000 c 2
 177 1000 l 2
EndSplineSet
EndChar

StartChar: bullet
Encoding: 8226 8226 120
Width: 345
VWidth: 2048
Flags: HMW
LayerCount: 2
Fore
SplineSet
76 732 m 258
 76 759 l 258
 76 819 122 848 170 848 c 256
 218 848 270 819 270 759 c 258
 270 732 l 258
 270 672 218 642 170 642 c 256
 122 642 76 672 76 732 c 258
EndSplineSet
EndChar

StartChar: dagger
Encoding: 8224 8224 124
Width: 380
VWidth: 1920
Flags: HMW
LayerCount: 2
Fore
SplineSet
35 1024 m 14
 35 1045 l 18
 35 1049 36 1050 40 1050 c 10
 340 1050 l 18
 344 1050 345 1049 345 1045 c 10
 345 1024 l 22
 345 1020 344 1020 340 1020 c 14
 40 1020 l 22
 36 1020 35 1020 35 1024 c 14
180 1400 m 10
 200 1400 l 18
 204 1400 205 1399 205 1395 c 10
 205 5 l 18
 205 1 204 0 200 0 c 10
 180 0 l 18
 176 0 175 1 175 5 c 10
 175 1395 l 18
 175 1399 176 1400 180 1400 c 10
EndSplineSet
EndChar

StartChar: daggerdbl
Encoding: 8225 8225 125
Width: 380
VWidth: 1920
Flags: HMW
LayerCount: 2
Fore
SplineSet
35 4 m 10
 35 25 l 18
 35 29 36 30 40 30 c 10
 340 30 l 18
 344 30 345 29 345 25 c 10
 345 4 l 18
 345 0 344 0 340 0 c 10
 40 0 l 18
 36 0 35 0 35 4 c 10
35 1024 m 14
 35 1045 l 18
 35 1049 36 1050 40 1050 c 10
 340 1050 l 18
 344 1050 345 1049 345 1045 c 10
 345 1024 l 22
 345 1020 344 1020 340 1020 c 14
 40 1020 l 22
 36 1020 35 1020 35 1024 c 14
180 1400 m 10
 200 1400 l 18
 204 1400 205 1399 205 1395 c 10
 205 -355 l 18
 205 -359 204 -360 200 -360 c 10
 180 -360 l 18
 176 -360 175 -359 175 -355 c 10
 175 1395 l 18
 175 1399 176 1400 180 1400 c 10
EndSplineSet
EndChar

StartChar: perthousand
Encoding: 8240 8240 126
Width: 947
VWidth: 2048
Flags: HMW
LayerCount: 2
Fore
SplineSet
647 185 m 262
 647 442 l 262
 647 567 662 631 750 631 c 260
 838 631 857 567 857 442 c 262
 857 185 l 262
 857 60 838 -5 750 -5 c 260
 662 -5 647 60 647 185 c 262
677 175 m 262
 677 90 686 25 750 25 c 260
 814 25 827 90 827 175 c 262
 827 452 l 262
 827 537 814 601 750 601 c 260
 686 601 677 537 677 452 c 262
 677 175 l 262
90 985 m 262
 90 1216 l 262
 90 1341 104 1405 192 1405 c 260
 280 1405 300 1341 300 1216 c 262
 300 985 l 262
 300 860 280 795 192 795 c 260
 104 795 90 860 90 985 c 262
120 975 m 262
 120 890 128 825 192 825 c 260
 256 825 270 890 270 975 c 262
 270 1226 l 262
 270 1311 256 1375 192 1375 c 260
 128 1375 120 1311 120 1226 c 262
 120 975 l 262
377 185 m 262
 377 442 l 262
 377 567 392 631 480 631 c 260
 568 631 587 567 587 442 c 262
 587 185 l 262
 587 60 568 -5 480 -5 c 260
 392 -5 377 60 377 185 c 262
407 175 m 262
 407 90 416 25 480 25 c 260
 544 25 557 90 557 175 c 262
 557 452 l 262
 557 537 544 601 480 601 c 260
 416 601 407 537 407 452 c 262
 407 175 l 262
614 1395 m 6
 92 5 l 6
 90 1 88 0 84 0 c 6
 64 0 l 6
 60 0 60 1 62 5 c 6
 584 1395 l 6
 586 1399 588 1400 592 1400 c 6
 612 1400 l 6
 616 1400 616 1399 614 1395 c 6
EndSplineSet
EndChar

StartChar: uni2031
Encoding: 8241 8241 127
Width: 1217
VWidth: 2048
Flags: HMW
LayerCount: 2
Fore
SplineSet
917 185 m 262
 917 442 l 262
 917 567 932 631 1020 631 c 260
 1108 631 1127 567 1127 442 c 262
 1127 185 l 262
 1127 60 1108 -5 1020 -5 c 260
 932 -5 917 60 917 185 c 262
947 175 m 262
 947 90 956 25 1020 25 c 260
 1084 25 1097 90 1097 175 c 262
 1097 452 l 262
 1097 537 1084 601 1020 601 c 260
 956 601 947 537 947 452 c 262
 947 175 l 262
647 185 m 258
 647 442 l 258
 647 567 662 631 750 631 c 256
 838 631 857 567 857 442 c 258
 857 185 l 258
 857 60 838 -5 750 -5 c 256
 662 -5 647 60 647 185 c 258
677 175 m 258
 677 90 686 25 750 25 c 256
 814 25 827 90 827 175 c 258
 827 452 l 258
 827 537 814 601 750 601 c 256
 686 601 677 537 677 452 c 258
 677 175 l 258
90 985 m 258
 90 1216 l 258
 90 1341 104 1405 192 1405 c 256
 280 1405 300 1341 300 1216 c 258
 300 985 l 258
 300 860 280 795 192 795 c 256
 104 795 90 860 90 985 c 258
120 975 m 258
 120 890 128 825 192 825 c 256
 256 825 270 890 270 975 c 258
 270 1226 l 258
 270 1311 256 1375 192 1375 c 256
 128 1375 120 1311 120 1226 c 258
 120 975 l 258
377 185 m 258
 377 442 l 258
 377 567 392 631 480 631 c 256
 568 631 587 567 587 442 c 258
 587 185 l 258
 587 60 568 -5 480 -5 c 256
 392 -5 377 60 377 185 c 258
407 175 m 258
 407 90 416 25 480 25 c 256
 544 25 557 90 557 175 c 258
 557 452 l 258
 557 537 544 601 480 601 c 256
 416 601 407 537 407 452 c 258
 407 175 l 258
614 1395 m 2
 92 5 l 2
 90 1 88 0 84 0 c 2
 64 0 l 2
 60 0 60 1 62 5 c 2
 584 1395 l 2
 586 1399 588 1400 592 1400 c 2
 612 1400 l 2
 616 1400 616 1399 614 1395 c 2
EndSplineSet
EndChar

StartChar: fraction
Encoding: 8260 8260 128
Width: 500
VWidth: 1920
Flags: HMW
LayerCount: 2
Fore
SplineSet
395 1292 m 14
 419 1283 l 18
 422 1282 421 1278 420 1273 c 10
 112 162 l 18
 111 157 109 157 105 158 c 10
 83 166 l 18
 78 168 79 174 81 180 c 10
 387 1286 l 18
 389 1292 391 1293 395 1292 c 14
EndSplineSet
EndChar

StartChar: uni2074
Encoding: 8308 8308 129
Width: 269
VWidth: 1920
Flags: HMW
LayerCount: 2
Fore
SplineSet
244 891 m 2
 244 871 l 2
 244 869 243 868 241 868 c 2
 187 868 l 1
 187 633 l 2
 187 631 186 630 184 630 c 2
 160 630 l 2
 158 630 157 631 157 633 c 2
 157 868 l 1
 20 868 l 2
 18 868 17 869 17 871 c 2
 17 888 l 2
 17 890 17 895 18 897 c 2
 167 1467 l 2
 168 1469 168 1470 170 1470 c 2
 184 1470 l 2
 186 1470 187 1469 187 1467 c 2
 187 894 l 1
 241 894 l 2
 243 894 244 893 244 891 c 2
158 894 m 1
 158 1357 l 1
 39 894 l 1
 158 894 l 1
EndSplineSet
EndChar

StartChar: uni2073
Encoding: 8307 8307 130
Width: 305
VWidth: 1920
Flags: HMW
LayerCount: 2
Fore
SplineSet
56 875 m 2
 79 875 l 2
 81 875 82 873 82 871 c 2
 82 730 l 2
 82 680 100 651 146 651 c 0
 190 651 210 679 210 737 c 2
 210 968 l 2
 210 1016 197 1045 140 1045 c 2
 116 1045 l 2
 114 1045 113 1046 113 1048 c 2
 113 1068 l 2
 113 1070 114 1071 116 1071 c 2
 134 1071 l 2
 184 1071 194 1096 194 1141 c 2
 194 1374 l 2
 194 1421 184 1448 143 1448 c 0
 102 1448 92 1417 92 1364 c 2
 92 1204 l 2
 92 1202 90 1201 88 1201 c 2
 65 1201 l 2
 63 1201 63 1202 63 1204 c 2
 63 1364 l 2
 63 1434 81 1475 143 1475 c 0
 205 1475 224 1442 224 1373 c 2
 224 1152 l 2
 224 1076 199 1055 135 1055 c 1
 141 1064 l 1
 217 1064 239 1036 239 960 c 2
 239 736 l 2
 239 663 215 625 145 625 c 0
 80 625 53 660 53 729 c 2
 53 871 l 2
 53 873 54 875 56 875 c 2
EndSplineSet
EndChar

StartChar: uni2072
Encoding: 8306 8306 131
Width: 251
VWidth: 1920
Flags: HMW
LayerCount: 2
Fore
SplineSet
52 714 m 2
 52 927 174 1037 174 1217 c 2
 174 1321 l 2
 174 1424 168 1456 133 1456 c 0
 95 1456 88 1399 88 1322 c 2
 88 1128 l 2
 88 1126 87 1125 85 1125 c 2
 62 1125 l 2
 60 1125 59 1126 59 1128 c 2
 59 1321 l 2
 59 1430 76 1482 133 1482 c 0
 192 1482 203 1440 203 1318 c 2
 203 1240 l 2
 203 1025 81 914 81 729 c 2
 81 665 l 1
 211 665 l 2
 213 665 214 663 214 661 c 2
 214 640 l 2
 214 638 213 637 211 637 c 2
 55 637 l 2
 53 637 52 638 52 640 c 2
 52 714 l 2
EndSplineSet
EndChar

StartChar: uni2070
Encoding: 8304 8304 132
Width: 335
VWidth: 1920
Flags: HMW
LayerCount: 2
Fore
SplineSet
86 777 m 2
 86 1323 l 2
 86 1421 96 1475 168 1475 c 0
 240 1475 248 1421 248 1323 c 2
 248 777 l 2
 248 679 240 625 168 625 c 0
 96 625 86 679 86 777 c 2
116 783 m 2
 116 709 119 651 168 651 c 0
 217 651 218 709 218 783 c 2
 218 1317 l 2
 218 1391 217 1450 168 1450 c 0
 119 1450 116 1391 116 1317 c 2
 116 783 l 2
EndSplineSet
EndChar

StartChar: uni2075
Encoding: 8309 8309 133
Width: 327
VWidth: 1920
Flags: HMW
LayerCount: 2
Fore
SplineSet
94 841 m 6
 116 841 l 6
 118 841 119 841 119 839 c 4
 119 683 131 643 161 643 c 4
 196 643 206 707 206 815 c 6
 206 990 l 6
 206 1120 196 1159 173 1159 c 4
 149 1159 138 1116 130 1016 c 4
 130 1014 127 1013 125 1013 c 6
 100 1013 l 6
 98 1013 97 1014 98 1016 c 6
 118 1460 l 6
 119 1462 120 1463 122 1463 c 6
 257 1463 l 6
 259 1463 259 1462 259 1460 c 6
 259 1453 l 6
 259 1440 250 1437 198 1437 c 6
 144 1437 l 5
 124 1037 l 5
 119 1037 l 5
 123 1105 135 1186 179 1186 c 4
 224 1186 235 1136 235 982 c 6
 235 801 l 6
 235 669 216 618 162 618 c 4
 110 618 93 653 91 838 c 4
 91 840 92 841 94 841 c 6
EndSplineSet
EndChar

StartChar: uni2076
Encoding: 8310 8310 134
Width: 318
VWidth: 1920
Flags: HMW
LayerCount: 2
Fore
SplineSet
170 1081 m 0
 127 1081 106 1041 106 986 c 2
 106 966 l 1
 98 995 l 1
 98 1065 120 1107 175 1107 c 0
 233 1107 252 1067 252 975 c 2
 252 754 l 2
 252 669 236 625 167 625 c 0
 79 625 77 681 77 790 c 2
 77 1303 l 2
 77 1423 88 1475 158 1475 c 0
 228 1475 235 1424 235 1344 c 2
 235 1203 l 2
 235 1201 235 1200 233 1200 c 2
 211 1200 l 2
 209 1200 207 1201 207 1203 c 2
 207 1343 l 2
 207 1410 204 1449 159 1449 c 0
 115 1449 106 1410 106 1301 c 2
 106 758 l 2
 106 687 113 652 166 652 c 0
 213 652 222 688 222 756 c 2
 222 976 l 2
 222 1055 207 1081 170 1081 c 0
EndSplineSet
EndChar

StartChar: uni2077
Encoding: 8311 8311 135
Width: 221
VWidth: 1920
Flags: HMW
LayerCount: 2
Fore
SplineSet
189 1469 m 6
 78 635 l 6
 77 633 75 632 73 632 c 6
 51 632 l 6
 49 632 48 633 49 635 c 6
 163 1444 l 5
 17 1444 l 6
 15 1444 14 1445 14 1447 c 6
 14 1469 l 6
 14 1471 15 1472 17 1472 c 6
 187 1472 l 6
 189 1472 190 1471 189 1469 c 6
EndSplineSet
EndChar

StartChar: uni2078
Encoding: 8312 8312 136
Width: 281
VWidth: 1920
Flags: HMW
LayerCount: 2
Fore
SplineSet
138 658 m 4
 181 658 190 683 190 740 c 6
 190 969 l 6
 190 1018 185 1048 138 1048 c 4
 91 1048 86 1018 86 969 c 6
 86 740 l 6
 86 683 95 658 138 658 c 4
138 1074 m 4
 168 1074 183 1099 183 1148 c 6
 183 1382 l 6
 183 1433 167 1456 138 1456 c 4
 109 1456 91 1433 91 1382 c 6
 91 1148 l 6
 91 1099 108 1074 138 1074 c 4
147 1065 m 5
 209 1065 219 1028 219 958 c 6
 219 742 l 6
 219 667 209 632 138 632 c 4
 68 632 56 667 56 742 c 6
 56 958 l 6
 56 1028 66 1065 128 1065 c 5
 129 1058 l 5
 83 1060 62 1088 62 1159 c 6
 62 1380 l 6
 62 1447 80 1482 138 1482 c 4
 197 1482 212 1447 212 1380 c 6
 212 1159 l 6
 212 1088 192 1060 146 1058 c 5
 147 1065 l 5
EndSplineSet
EndChar

StartChar: uni2079
Encoding: 8313 8313 137
Width: 256
VWidth: 1920
Flags: HMW
LayerCount: 2
Fore
SplineSet
123 1019 m 4
 165 1019 186 1059 186 1114 c 6
 186 1135 l 5
 195 1105 l 5
 195 1035 172 994 119 994 c 4
 61 994 43 1033 43 1125 c 6
 43 1347 l 6
 43 1432 58 1475 127 1475 c 4
 215 1475 216 1420 216 1311 c 6
 216 798 l 6
 216 678 201 625 131 625 c 4
 61 625 46 677 46 757 c 6
 46 898 l 6
 46 900 46 901 48 901 c 6
 71 901 l 6
 73 901 74 900 74 898 c 6
 74 757 l 6
 74 690 85 652 130 652 c 4
 174 652 186 690 186 799 c 6
 186 1342 l 6
 186 1413 180 1449 128 1449 c 4
 82 1449 72 1412 72 1344 c 6
 72 1125 l 6
 72 1046 86 1019 123 1019 c 4
EndSplineSet
EndChar

StartChar: uni00B9
Encoding: 185 185 138
Width: 258
VWidth: 1920
Flags: HMW
LayerCount: 2
Fore
SplineSet
118 1465 m 0
 126 1469 128 1478 129 1501 c 0
 129 1505 129 1506 133 1506 c 2
 140 1506 l 2
 144 1506 144 1505 144 1501 c 2
 144 645 l 2
 144 641 143 640 139 640 c 2
 119 640 l 2
 115 640 114 641 114 645 c 2
 114 1459 l 2
 114 1463 116 1464 118 1465 c 0
EndSplineSet
EndChar

StartChar: cent
Encoding: 162 162 154
Width: 317
VWidth: 1920
Flags: HMW
LayerCount: 2
Fore
SplineSet
158 1240 m 6
 168 1240 l 6
 172 1240 173 1240 173 1236 c 6
 173 -186 l 6
 173 -190 172 -190 168 -190 c 6
 158 -190 l 6
 154 -190 153 -190 153 -186 c 6
 153 1236 l 6
 153 1240 154 1240 158 1240 c 6
EndSplineSet
Refer: 40 99 N 1 0 0 1 0 0 2
EndChar

StartChar: uni203D
Encoding: 8253 8253 157
Width: 396
VWidth: 1920
Flags: HMW
LayerCount: 2
Fore
SplineSet
181 950 m 2
 181 1180 l 2
 181 1187 184 1190 191 1190 c 2
 201 1190 l 2
 208 1190 211 1187 211 1180 c 2
 211 950 l 2
 211 943 212 857 211 850 c 2
 207 410 l 2
 207 403 204 400 197 400 c 2
 195 400 l 2
 188 400 185 403 185 410 c 2
 183 850 l 2
 183 857 181 943 181 950 c 2
210 0 m 2
 190 0 l 2
 183 0 180 3 180 10 c 2
 180 200 l 2
 180 207 183 210 190 210 c 2
 210 210 l 2
 217 210 220 207 220 200 c 2
 220 10 l 2
 220 3 217 0 210 0 c 2
202 400 m 2
 196 400 l 2
 192 400 194 401 194 404 c 0
 193 585 276 645 276 982 c 258
 276 1183 l 258
 276 1283 256 1387 198 1387 c 256
 128 1387 120 1271 120 1175 c 258
 120 957 l 2
 120 953 120 952 116 952 c 2
 96 952 l 2
 92 952 90 953 90 957 c 2
 90 1175 l 258
 90 1287 104 1417 198 1417 c 256
 286 1417 306 1295 306 1185 c 258
 306 994 l 258
 306 687 207 557 208 404 c 0
 208 401 205 400 202 400 c 2
EndSplineSet
EndChar

StartChar: ordfeminine
Encoding: 170 170 159
Width: 364
VWidth: 1920
Flags: HMW
LayerCount: 2
Fore
SplineSet
105 834 m 0
 105 730 119 669 153 669 c 256
 195 669 229 806 229 952 c 257
 239 902 l 257
 239 759 209 639 153 639 c 256
 101 639 75 699 75 834 c 0
 75 985 91 1035 160 1096 c 260
 196 1128 229 1159 229 1242 c 257
 239 1202 l 261
 239 1139 212 1113 168 1071 c 256
 129 1034 105 964 105 834 c 0
229 852 m 258
 229 1262 l 258
 229 1342 227 1459 179 1459 c 256
 129 1459 131 1362 131 1226 c 0
 131 1220 130 1217 126 1217 c 2
 104 1217 l 2
 100 1217 100 1220 100 1226 c 0
 112 1379 91 1489 179 1489 c 256
 254 1489 259 1395 259 1187 c 258
 259 852 l 258
 259 758 270 693 288 651 c 0
 290 646 290 644 286 644 c 2
 266 644 l 2
 262 644 260 646 258 650 c 0
 240 693 229 757 229 852 c 258
EndSplineSet
EndChar

StartChar: exclamdown
Encoding: 161 161 160
Width: 275
VWidth: 1920
Flags: HMW
LayerCount: 2
Fore
SplineSet
128 1050 m 6
 148 1050 l 6
 155 1050 158 1047 158 1040 c 6
 158 850 l 6
 158 843 155 840 148 840 c 6
 128 840 l 6
 121 840 118 843 118 850 c 6
 118 1040 l 6
 118 1047 121 1050 128 1050 c 6
154 100 m 6
 154 -390 l 6
 154 -397 151 -400 144 -400 c 6
 134 -400 l 6
 127 -400 124 -397 124 -390 c 6
 124 100 l 6
 124 107 123 193 124 200 c 6
 128 610 l 6
 128 617 131 620 138 620 c 6
 140 620 l 6
 147 620 150 617 150 610 c 6
 152 200 l 6
 152 193 154 107 154 100 c 6
EndSplineSet
EndChar

StartChar: AE
Encoding: 198 198 161
Width: 749
VWidth: 1920
Flags: HMW
LayerCount: 2
Fore
SplineSet
179 465 m 25
 399 465 l 29
 399 435 l 29
 179 435 l 25
 179 465 l 25
413 1400 m 1
 91 10 l 2
 87 4 85 0 78 0 c 2
 69 0 l 2
 62 0 59 5 62 10 c 2
 381 1390 l 2
 382 1396 387 1400 394 1400 c 2
 413 1400 l 1
EndSplineSet
Refer: 16 69 N 1 0 0 1 309 0 2
EndChar

StartChar: questiondown
Encoding: 191 191 162
Width: 396
VWidth: 1920
Flags: HMW
LayerCount: 2
Fore
SplineSet
198 1050 m 6
 218 1050 l 6
 225 1050 228 1047 228 1040 c 6
 228 850 l 6
 228 843 225 840 218 840 c 6
 198 840 l 6
 191 840 188 843 188 850 c 6
 188 1040 l 6
 188 1047 191 1050 198 1050 c 6
206 650 m 6
 208 650 l 6
 212 650 214 649 214 646 c 4
 215 465 120 405 120 68 c 262
 120 -183 l 262
 120 -283 140 -387 198 -387 c 260
 268 -387 276 -271 276 -175 c 262
 276 93 l 6
 276 97 276 98 280 98 c 6
 300 98 l 6
 304 98 306 97 306 93 c 6
 306 -175 l 262
 306 -287 292 -417 198 -417 c 260
 110 -417 90 -295 90 -185 c 262
 90 56 l 262
 90 363 201 493 200 646 c 4
 200 649 203 650 206 650 c 6
EndSplineSet
EndChar

StartChar: yen
Encoding: 165 165 163
Width: 390
VWidth: 1920
Flags: HMW
LayerCount: 2
Fore
SplineSet
10 489 m 10
 10 509 l 18
 10 513 11 514 15 514 c 10
 375 514 l 18
 379 514 380 513 380 509 c 10
 380 489 l 18
 380 485 379 484 375 484 c 10
 15 484 l 18
 11 484 10 485 10 489 c 10
10 616 m 14
 10 636 l 22
 10 640 11 641 15 641 c 14
 375 641 l 22
 379 641 380 640 380 636 c 14
 380 616 l 22
 380 612 379 611 375 611 c 14
 15 611 l 22
 11 611 10 612 10 616 c 14
EndSplineSet
Refer: 36 89 N 1 0 0 1 0 0 2
EndChar

StartChar: gravecomb
Encoding: 768 768 164
Width: 0
Flags: HMW
AnchorPoint: "top" -611 1000 mark 0
LayerCount: 2
Fore
SplineSet
-601 1104 m 2
 -611 1104 l 2
 -615 1104 -619 1109 -621 1114 c 2
 -734 1390 l 2
 -736 1395 -738 1400 -734 1400 c 2
 -708 1400 l 2
 -704 1400 -702 1397 -700 1390 c 2
 -599 1114 l 2
 -597 1107 -597 1104 -601 1104 c 2
EndSplineSet
EndChar

StartChar: acutecomb
Encoding: 769 769 165
Width: 0
Flags: HMW
AnchorPoint: "top" -548 1000 mark 0
LayerCount: 2
Fore
SplineSet
-549 1104 m 6
 -553 1104 -553 1107 -551 1114 c 6
 -450 1390 l 6
 -448 1397 -446 1400 -442 1400 c 6
 -416 1400 l 6
 -412 1400 -414 1395 -416 1390 c 6
 -529 1114 l 6
 -531 1109 -535 1104 -539 1104 c 6
 -549 1104 l 6
EndSplineSet
EndChar

StartChar: uni0302
Encoding: 770 770 166
Width: 0
VWidth: 1920
Flags: HMW
AnchorPoint: "top" -557 1000 mark 0
LayerCount: 2
Fore
SplineSet
-558 1371 m 261
 -650 1110 l 6
 -652 1105 -656 1100 -660 1100 c 6
 -672 1100 l 6
 -676 1100 -678 1104 -676 1110 c 6
 -574 1390 l 6
 -571 1398 -572 1400 -568 1400 c 6
 -548 1400 l 6
 -544 1400 -543 1398 -540 1390 c 6
 -434 1110 l 6
 -432 1104 -432 1100 -438 1100 c 6
 -450 1100 l 6
 -455 1100 -458 1105 -460 1110 c 6
 -558 1371 l 261
EndSplineSet
EndChar

StartChar: tildecomb
Encoding: 771 771 167
Width: 0
Flags: HMW
AnchorPoint: "top" -572 1000 mark 0
LayerCount: 2
Fore
SplineSet
-632 1267 m 260
 -683 1267 -680 1190 -682 1157 c 0
 -682 1151 -685 1148 -688 1148 c 2
 -708 1148 l 2
 -712 1148 -712 1151 -712 1157 c 0
 -710 1245 -687 1297 -632 1297 c 256
 -558 1297 -549 1164 -498 1164 c 260
 -447 1164 -449 1241 -447 1273 c 0
 -447 1280 -445 1283 -442 1283 c 2
 -423 1283 l 2
 -419 1283 -418 1280 -418 1273 c 0
 -420 1185 -443 1134 -498 1134 c 256
 -572 1134 -581 1267 -632 1267 c 260
EndSplineSet
EndChar

StartChar: uni0304
Encoding: 772 772 168
Width: 0
VWidth: 1920
Flags: HMW
AnchorPoint: "top" -560 1000 mark 0
LayerCount: 2
Fore
SplineSet
-695 1171 m 14
 -695 1191 l 22
 -695 1195 -694 1196 -690 1196 c 14
 -430 1196 l 22
 -426 1196 -425 1195 -425 1191 c 14
 -425 1171 l 22
 -425 1167 -426 1166 -430 1166 c 14
 -690 1166 l 22
 -694 1166 -695 1167 -695 1171 c 14
EndSplineSet
EndChar

StartChar: uni0306
Encoding: 774 774 169
Width: 0
VWidth: 1920
Flags: HMW
AnchorPoint: "top" -560 1000 mark 0
LayerCount: 2
Fore
SplineSet
-560 1171 m 4
 -505 1171 -466 1203 -466 1267 c 4
 -466 1271 -466 1272 -462 1272 c 6
 -440 1272 l 6
 -436 1272 -435 1271 -435 1265 c 4
 -439 1194 -468 1141 -560 1141 c 4
 -652 1141 -682 1195 -685 1267 c 4
 -685 1271 -684 1272 -680 1272 c 6
 -658 1272 l 6
 -654 1272 -654 1271 -654 1266 c 4
 -654 1201 -614 1171 -560 1171 c 4
EndSplineSet
EndChar

StartChar: uni0307
Encoding: 775 775 170
Width: 0
Flags: HMW
AnchorPoint: "top" -548 1000 mark 0
LayerCount: 2
Fore
SplineSet
-522 1164 m 6
 -578 1164 l 6
 -580 1164 -582 1164 -582 1166 c 6
 -582 1224 l 6
 -582 1226 -580 1226 -578 1226 c 6
 -522 1226 l 6
 -520 1226 -518 1226 -518 1224 c 6
 -518 1166 l 6
 -518 1164 -520 1164 -522 1164 c 6
EndSplineSet
EndChar

StartChar: uni0308
Encoding: 776 776 171
Width: 0
Flags: HMW
AnchorPoint: "top" -548 1000 mark 0
LayerCount: 2
Fore
SplineSet
-592 1164 m 6
 -649 1164 l 6
 -651 1164 -652 1164 -652 1166 c 6
 -652 1224 l 6
 -652 1226 -651 1226 -649 1226 c 6
 -592 1226 l 6
 -590 1226 -589 1226 -589 1224 c 6
 -589 1166 l 6
 -589 1164 -590 1164 -592 1164 c 6
-447 1164 m 6
 -504 1164 l 6
 -506 1164 -507 1164 -507 1166 c 6
 -507 1224 l 6
 -507 1226 -506 1226 -504 1226 c 6
 -447 1226 l 6
 -445 1226 -444 1226 -444 1224 c 6
 -444 1166 l 6
 -444 1164 -445 1164 -447 1164 c 6
EndSplineSet
EndChar

StartChar: uni030A
Encoding: 778 778 172
Width: 0
Flags: HMW
AnchorPoint: "top" -554 1000 mark 0
LayerCount: 2
Fore
SplineSet
-458 1212 m 0
 -458 1160 -502 1117 -554 1117 c 0
 -607 1117 -652 1159 -652 1212 c 0
 -652 1263 -607 1307 -554 1307 c 0
 -501 1307 -458 1266 -458 1212 c 0
-488 1212 m 0
 -488 1250 -517 1277 -554 1277 c 0
 -591 1277 -622 1247 -622 1212 c 0
 -622 1175 -591 1147 -554 1147 c 0
 -518 1147 -488 1177 -488 1212 c 0
EndSplineSet
EndChar

StartChar: uni030B
Encoding: 779 779 173
Width: 0
Flags: HMW
AnchorPoint: "top" -542 1000 mark 0
LayerCount: 2
Fore
SplineSet
-479 1104 m 6
 -483 1104 -483 1107 -481 1114 c 6
 -380 1390 l 6
 -378 1397 -376 1400 -372 1400 c 6
 -346 1400 l 6
 -342 1400 -344 1395 -346 1390 c 6
 -459 1114 l 6
 -461 1109 -465 1104 -469 1104 c 6
 -479 1104 l 6
-609 1104 m 6
 -613 1104 -613 1107 -611 1114 c 6
 -510 1390 l 6
 -508 1397 -506 1400 -502 1400 c 6
 -476 1400 l 6
 -472 1400 -474 1395 -476 1390 c 6
 -589 1114 l 6
 -591 1109 -595 1104 -599 1104 c 6
 -609 1104 l 6
EndSplineSet
EndChar

StartChar: uni030C
Encoding: 780 780 174
Width: 0
Flags: HMW
AnchorPoint: "top" -554 1000 mark 0
LayerCount: 2
Fore
SplineSet
-552 1149 m 257
 -460 1410 l 2
 -458 1415 -454 1420 -450 1420 c 2
 -438 1420 l 2
 -434 1420 -432 1416 -434 1410 c 2
 -536 1130 l 2
 -539 1122 -538 1120 -542 1120 c 2
 -562 1120 l 2
 -566 1120 -567 1122 -570 1130 c 2
 -676 1410 l 2
 -678 1416 -678 1420 -672 1420 c 2
 -660 1420 l 2
 -655 1420 -652 1415 -650 1410 c 2
 -552 1149 l 257
EndSplineSet
EndChar

StartChar: uni030F
Encoding: 783 783 175
Width: 0
Flags: HMW
AnchorPoint: "top" -571 1000 mark 0
LayerCount: 2
Fore
SplineSet
-491 1104 m 2
 -501 1104 l 2
 -505 1104 -509 1109 -511 1114 c 2
 -624 1390 l 2
 -626 1395 -628 1400 -624 1400 c 2
 -598 1400 l 2
 -594 1400 -592 1397 -590 1390 c 2
 -489 1114 l 2
 -487 1107 -487 1104 -491 1104 c 2
-621 1104 m 2
 -631 1104 l 2
 -635 1104 -639 1109 -641 1114 c 2
 -754 1390 l 2
 -756 1395 -758 1400 -754 1400 c 2
 -728 1400 l 2
 -724 1400 -722 1397 -720 1390 c 2
 -619 1114 l 2
 -617 1107 -617 1104 -621 1104 c 2
EndSplineSet
EndChar

StartChar: uni0311
Encoding: 785 785 176
Width: 0
Flags: HMW
AnchorPoint: "top" -604 1152 mark 0
LayerCount: 2
Fore
SplineSet
-604 1339 m 4
 -659 1339 -698 1307 -698 1243 c 4
 -698 1239 -698 1238 -702 1238 c 6
 -724 1238 l 6
 -728 1238 -729 1239 -729 1245 c 4
 -725 1316 -696 1369 -604 1369 c 4
 -512 1369 -482 1315 -479 1243 c 4
 -479 1239 -480 1238 -484 1238 c 6
 -506 1238 l 6
 -510 1238 -510 1239 -510 1244 c 4
 -510 1309 -550 1339 -604 1339 c 4
EndSplineSet
EndChar

StartChar: dotbelowcomb
Encoding: 803 803 177
Width: 0
Flags: HMW
AnchorPoint: "bottom" -551 0 mark 0
LayerCount: 2
Fore
SplineSet
-522 -286 m 6
 -578 -286 l 6
 -580 -286 -582 -286 -582 -284 c 6
 -582 -226 l 6
 -582 -224 -580 -224 -578 -224 c 6
 -522 -224 l 6
 -520 -224 -518 -224 -518 -226 c 6
 -518 -284 l 6
 -518 -286 -520 -286 -522 -286 c 6
EndSplineSet
EndChar

StartChar: uni0326
Encoding: 806 806 178
Width: 0
Flags: HMW
AnchorPoint: "bottom" -561 0 mark 0
LayerCount: 2
Fore
SplineSet
-597 -373 m 6
 -606 -373 l 6
 -608 -373 -609 -372 -608 -370 c 6
 -576 -310 l 261
 -597 -310 l 6
 -600 -310 -600 -310 -600 -307 c 6
 -600 -250 l 6
 -600 -248 -599 -247 -597 -247 c 6
 -540 -247 l 6
 -538 -247 -537 -248 -537 -250 c 6
 -537 -304 l 6
 -537 -306 -538 -307 -540 -310 c 6
 -592 -370 l 6
 -594 -372 -595 -373 -597 -373 c 6
EndSplineSet
EndChar

StartChar: uni0327
Encoding: 807 807 179
Width: 1200
Flags: HMW
AnchorPoint: "bottom" -511 0 mark 0
LayerCount: 2
Fore
SplineSet
-610 -450 m 0
 -640 -450 -669 -443 -695 -426 c 0
 -700 -423 -700 -418 -697 -414 c 2
 -688 -403 l 2
 -685 -399 -684 -398 -679 -400 c 0
 -653 -414 -635 -421 -610 -421 c 0
 -583 -421 -538 -412 -538 -326 c 0
 -538 -243 -575 -220 -639 -220 c 0
 -646 -220 -645 -220 -647 -215 c 2
 -650 -208 l 2
 -652 -203 -650 -201 -648 -198 c 2
 -511 10 l 1
 -482 10 l 5
 -627 -206 l 1
 -619 -204 -604 -204 -596 -204 c 0
 -553 -204 -508 -236 -508 -326 c 0
 -508 -420 -553 -450 -610 -450 c 0
EndSplineSet
EndChar

StartChar: uni0328
Encoding: 808 808 180
Width: 1200
Flags: HMW
AnchorPoint: "ogonek" -536 0 mark 0
LayerCount: 2
Fore
SplineSet
-536 -348 m 2
 -536 -368 l 2
 -536 -372 -538 -372 -542 -372 c 2
 -582 -372 l 2
 -676 -372 -732 -311 -732 -212 c 0
 -732 -113 -641 -72 -521 13 c 5
 -512 0 l 1
 -604 -71 -702 -120 -702 -212 c 0
 -702 -293 -656 -342 -576 -342 c 2
 -542 -342 l 2
 -538 -342 -536 -344 -536 -348 c 2
EndSplineSet
EndChar

StartChar: uni0312
Encoding: 786 786 181
Width: 0
Flags: HMW
AnchorPoint: "top" -604 950 mark 0
LayerCount: 2
Fore
SplineSet
-567 1430 m 2
 -565 1430 l 2
 -558 1430 -557 1428 -559 1420 c 2
 -597 1220 l 257
 -591 1220 l 2
 -582 1220 -581 1219 -581 1210 c 2
 -581 1020 l 2
 -581 1013 -584 1010 -591 1010 c 2
 -611 1010 l 2
 -618 1010 -621 1013 -621 1020 c 2
 -621 1200 l 2
 -621 1207 -621 1213 -619 1220 c 2
 -577 1420 l 2
 -575 1429 -573 1430 -567 1430 c 2
EndSplineSet
EndChar

StartChar: sterling
Encoding: 163 163 182
Width: 470
VWidth: 1920
Flags: HMW
LayerCount: 2
Fore
SplineSet
65 689 m 14
 65 710 l 18
 65 714 66 715 70 715 c 10
 310 715 l 18
 314 715 315 714 315 710 c 10
 315 689 l 22
 315 685 314 685 310 685 c 14
 70 685 l 22
 66 685 65 685 65 689 c 14
82 29 m 0
 140 87 204 362 204 597 c 0
 204 796 110 907 110 1141 c 0
 110 1306 124 1417 238 1417 c 0
 355 1417 365 1285 365 967 c 0
 365 963 364 963 360 963 c 2
 338 963 l 2
 335 963 333 963 333 967 c 0
 331 1210 335 1387 238 1387 c 0
 151 1387 140 1281 140 1151 c 0
 140 915 234 810 234 597 c 0
 234 376 168 73 109 30 c 1
 415 30 l 2
 419 30 420 28 420 24 c 2
 420 5 l 2
 420 1 419 0 415 0 c 2
 85 0 l 2
 81 0 80 1 80 5 c 2
 80 24 l 2
 80 26 80 27 82 29 c 0
EndSplineSet
EndChar

StartChar: currency
Encoding: 164 164 183
Width: 1112
Flags: HMW
LayerCount: 2
Fore
SplineSet
769 941 m 10
 783 927 l 18
 785 925 785 922 783 920 c 10
 722 858 l 18
 720 856 717 856 715 858 c 10
 701 872 l 18
 699 874 699 878 701 880 c 10
 762 941 l 18
 764 943 767 943 769 941 c 10
385 557 m 10
 399 543 l 18
 401 541 401 537 399 535 c 10
 338 474 l 18
 336 472 333 472 331 474 c 10
 317 488 l 18
 315 490 315 493 317 495 c 10
 378 557 l 18
 380 559 383 559 385 557 c 10
317 927 m 14
 331 941 l 22
 333 943 336 943 338 941 c 14
 399 880 l 22
 401 878 401 874 399 872 c 14
 385 858 l 22
 383 856 380 856 378 858 c 14
 317 920 l 22
 315 922 315 925 317 927 c 14
701 543 m 14
 715 557 l 22
 717 559 720 559 722 557 c 14
 783 495 l 22
 785 493 785 490 783 488 c 14
 769 474 l 22
 767 472 764 472 762 474 c 14
 701 535 l 22
 699 537 699 541 701 543 c 14
306 709 m 0
 306 843 418 954 552 954 c 0
 686 954 796 843 796 709 c 0
 796 575 686 464 552 464 c 0
 418 464 306 575 306 709 c 0
336 709 m 0
 336 595 428 494 552 494 c 0
 676 494 766 595 766 709 c 0
 766 823 676 924 552 924 c 0
 428 924 336 823 336 709 c 0
EndSplineSet
EndChar

StartChar: brokenbar
Encoding: 166 166 184
Width: 365
VWidth: 1920
Flags: HMW
LayerCount: 2
Fore
SplineSet
173 430 m 10
 193 430 l 22
 197 430 198 427 198 420 c 14
 198 -350 l 22
 198 -357 197 -360 193 -360 c 14
 173 -360 l 18
 169 -360 168 -357 168 -350 c 10
 168 420 l 18
 168 427 169 430 173 430 c 10
173 1600 m 10
 193 1600 l 22
 197 1600 198 1597 198 1590 c 14
 198 820 l 22
 198 813 197 810 193 810 c 14
 173 810 l 18
 169 810 168 813 168 820 c 10
 168 1590 l 18
 168 1597 169 1600 173 1600 c 10
EndSplineSet
EndChar

StartChar: section
Encoding: 167 167 185
Width: 568
VWidth: 1920
Flags: HMW
LayerCount: 2
Fore
SplineSet
254 890 m 261
 182 890 119 776 119 598 c 260
 119 431 167 344 258 241 c 260
 378 105 410 47 410 -93 c 260
 410 -265 363 -370 269 -370 c 260
 172 -370 139 -267 132 -57 c 4
 132 -51 134 -48 138 -48 c 6
 159 -48 l 6
 163 -48 164 -51 164 -58 c 4
 171 -238 197 -340 269 -340 c 260
 343 -340 380 -243 380 -93 c 260
 380 45 324 121 242 212 c 260
 120 347 90 456 90 593 c 260
 90 795 158 900 260 900 c 261
 254 890 l 261
314 145 m 257
 386 145 449 259 449 437 c 256
 449 604 401 691 310 794 c 256
 190 930 158 988 158 1128 c 256
 158 1300 205 1405 299 1405 c 256
 396 1405 429 1302 436 1092 c 0
 436 1086 434 1083 430 1083 c 2
 409 1083 l 2
 405 1083 404 1086 404 1093 c 0
 397 1273 371 1375 299 1375 c 256
 225 1375 188 1278 188 1128 c 256
 188 990 244 914 326 823 c 256
 448 688 478 579 478 442 c 256
 478 240 410 135 308 135 c 257
 314 145 l 257
EndSplineSet
EndChar

StartChar: copyright
Encoding: 169 169 186
Width: 844
Flags: HMW
LayerCount: 2
Fore
SplineSet
512 612 m 260
 512 323 510 247 414 247 c 260
 331 247 328 327 328 465 c 262
 328 875 l 262
 328 1025 349 1093 423 1093 c 260
 506 1093 509 983 509 770 c 260
 509 768 508 767 506 767 c 262
 494 767 l 262
 492 767 491 768 491 770 c 260
 490 988 482 1075 423 1075 c 260
 352 1075 346 995 346 878 c 262
 346 462 l 262
 346 351 347 265 414 265 c 260
 490 265 496 332 494 612 c 260
 494 614 495 615 497 615 c 262
 509 615 l 262
 511 615 512 614 512 612 c 260
769 668 m 4
 769 284 735 -28 421 -28 c 4
 107 -28 75 284 75 668 c 4
 75 1052 107 1366 421 1366 c 4
 735 1366 769 1052 769 668 c 4
739 668 m 4
 739 1006 729 1336 421 1336 c 4
 113 1336 105 1006 105 668 c 4
 105 330 113 2 421 2 c 4
 729 2 739 330 739 668 c 4
EndSplineSet
EndChar

StartChar: registered
Encoding: 174 174 188
Width: 844
Flags: HMW
LayerCount: 2
Fore
SplineSet
365 1102 m 261
 365 712 l 261
 404 712 l 262
 443 712 476 747 476 825 c 262
 476 977 l 262
 476 1049 467 1102 404 1102 c 262
 365 1102 l 261
404 1120 m 262
 478 1120 494 1073 494 971 c 262
 494 837 l 262
 494 729 445 703 404 703 c 261
 404 706 l 261
 445 706 491 689 491 617 c 262
 491 420 l 262
 491 349 500 318 514 298 c 4
 516 294 517 294 517 292 c 6
 517 283 l 6
 517 281 516 280 514 280 c 6
 506 280 l 6
 504 280 503 280 501 282 c 4
 484 306 473 334 473 420 c 262
 473 626 l 262
 473 668 449 697 404 697 c 262
 365 697 l 261
 365 283 l 6
 365 281 364 280 362 280 c 6
 350 280 l 6
 348 280 347 281 347 283 c 6
 347 1117 l 6
 347 1119 348 1120 350 1120 c 6
 404 1120 l 262
769 668 m 4
 769 284 735 -28 421 -28 c 4
 107 -28 75 284 75 668 c 4
 75 1052 107 1366 421 1366 c 4
 735 1366 769 1052 769 668 c 4
739 668 m 4
 739 1006 729 1336 421 1336 c 4
 113 1336 105 1006 105 668 c 4
 105 330 113 2 421 2 c 4
 729 2 739 330 739 668 c 4
EndSplineSet
EndChar

StartChar: dotlessi
Encoding: 305 305 279
Width: 168
VWidth: 1104
Flags: HMW
AnchorPoint: "top" 84 1050 basechar 0
LayerCount: 2
Fore
SplineSet
99 1044 m 2
 99 6 l 2
 99 2 98 0 94 0 c 2
 75 0 l 2
 71 0 69 2 69 6 c 2
 69 1044 l 2
 69 1048 71 1050 75 1050 c 2
 94 1050 l 2
 98 1050 99 1048 99 1044 c 2
EndSplineSet
EndChar

StartChar: uni0237
Encoding: 567 567 291
Width: 168
VWidth: 1104
Flags: HMW
AnchorPoint: "top" 85 1050 basechar 0
LayerCount: 2
Fore
SplineSet
100 -55 m 2
 100 -174 87 -223 -26 -202 c 0
 -31 -201 -32 -200 -32 -196 c 2
 -32 -180 l 2
 -32 -176 -30 -175 -26 -176 c 0
 61 -193 69 -158 69 -74 c 6
 69 1044 l 6
 69 1048 71 1050 75 1050 c 2
 94 1050 l 2
 98 1050 100 1048 100 1044 c 2
 100 -55 l 2
EndSplineSet
EndChar

StartChar: kgreenlandic
Encoding: 312 312 298
Width: 298
VWidth: 1104
Flags: HMW
LayerCount: 2
Fore
SplineSet
76 1050 m 6
 94 1050 l 6
 98 1050 100 1048 100 1044 c 6
 100 6 l 2
 100 2 98 0 94 0 c 2
 76 0 l 2
 72 0 70 2 70 6 c 2
 70 1044 l 6
 70 1048 72 1050 76 1050 c 6
83 412 m 1
 234 1044 l 2
 236 1049 240 1050 244 1050 c 2
 258 1050 l 2
 262 1050 265 1049 262 1044 c 2
 90 367 l 1
 83 412 l 1
145 661 m 1
 159 709 l 1
 270 6 l 2
 272 2 272 1 268 0 c 2
 248 0 l 2
 243 0 240 2 239 6 c 2
 145 661 l 1
EndSplineSet
EndChar

StartChar: grave
Encoding: 96 96 339
Width: 311
VWidth: 0
Flags: HMW
LayerCount: 2
Fore
SplineSet
208 1104 m 2
 198 1104 l 2
 194 1104 190 1109 188 1114 c 2
 75 1390 l 2
 73 1395 71 1400 75 1400 c 2
 101 1400 l 2
 105 1400 107 1397 109 1390 c 2
 210 1114 l 2
 212 1107 212 1104 208 1104 c 2
EndSplineSet
EndChar

StartChar: longs
Encoding: 383 383 352
Width: 217
VWidth: 1104
Flags: HMW
LayerCount: 2
Fore
SplineSet
93 1315 m 6
 93 1434 100 1476 203 1461 c 4
 209 1460 210 1458 210 1454 c 6
 210 1442 l 6
 210 1438 207 1436 200 1437 c 4
 121 1448 124 1398 124 1315 c 6
 124 6 l 6
 124 2 121 0 117 0 c 6
 99 0 l 6
 95 0 93 2 93 6 c 6
 93 1315 l 6
EndSplineSet
EndChar

StartChar: uni0259
Encoding: 601 601 359
Width: 336
VWidth: 1104
Flags: HMW
LayerCount: 2
Fore
SplineSet
69 652 m 4
 77 940 81 1060 169 1060 c 4
 242 1060 277 970 277 792 c 6
 277 257 l 6
 277 85 244 -10 168 -10 c 4
 96 -10 77 71 70 226 c 4
 64 352 65 422 65 548 c 4
 65 550 66 553 70 553 c 6
 260 553 l 5
 260 527 l 5
 92 527 l 5
 94 80 114 17 168 17 c 4
 224 17 247 115 247 245 c 6
 247 805 l 6
 247 939 224 1033 168 1033 c 4
 109 1033 98 935 90 650 c 4
 90 648 87 647 83 647 c 6
 73 647 l 6
 69 647 69 649 69 652 c 4
EndSplineSet
EndChar

StartChar: logicalnot
Encoding: 172 172 373
Width: 600
VWidth: 2048
Flags: HMW
LayerCount: 2
Fore
SplineSet
75 675 m 2
 75 685 l 2
 75 692 76 695 80 695 c 2
 480 695 l 2
 484 695 485 692 485 685 c 2
 485 325 l 2
 485 318 484 315 480 315 c 2
 460 315 l 6
 456 315 455 318 455 325 c 6
 455 665 l 5
 80 665 l 2
 76 665 75 668 75 675 c 2
EndSplineSet
EndChar

StartChar: acute
Encoding: 180 180 374
Width: 311
VWidth: 0
Flags: HMW
LayerCount: 2
Fore
SplineSet
77 1104 m 6
 73 1104 73 1107 75 1114 c 6
 176 1390 l 6
 178 1397 180 1400 184 1400 c 6
 210 1400 l 6
 214 1400 212 1395 210 1390 c 6
 97 1114 l 6
 95 1109 91 1104 87 1104 c 6
 77 1104 l 6
EndSplineSet
EndChar

StartChar: degree
Encoding: 176 176 376
Width: 440
VWidth: 2048
Flags: HMW
LayerCount: 2
Fore
SplineSet
50 1241 m 258
 50 1258 l 258
 50 1353 130 1417 218 1417 c 256
 306 1417 390 1353 390 1258 c 258
 390 1241 l 258
 390 1146 306 1081 218 1081 c 256
 130 1081 50 1146 50 1241 c 258
80 1235 m 262
 80 1165 140 1111 218 1111 c 256
 296 1111 360 1165 360 1235 c 262
 360 1263 l 258
 360 1333 296 1387 218 1387 c 256
 140 1387 80 1333 80 1263 c 258
 80 1235 l 262
EndSplineSet
EndChar

StartChar: plusminus
Encoding: 177 177 377
Width: 576
Flags: HMW
LayerCount: 2
Fore
SplineSet
50 546 m 10
 50 565 l 18
 50 569 52 570 56 570 c 10
 520 570 l 18
 524 570 526 569 526 565 c 10
 526 546 l 18
 526 542 524 540 520 540 c 10
 56 540 l 18
 52 540 50 542 50 546 c 10
50 935 m 10
 50 956 l 18
 50 960 52 960 56 960 c 10
 520 960 l 18
 524 960 526 960 526 956 c 10
 526 935 l 18
 526 931 524 930 520 930 c 10
 56 930 l 18
 52 930 50 931 50 935 c 10
281 1168 m 14
 305 1168 l 22
 309 1168 311 1166 311 1162 c 14
 311 712 l 22
 311 708 309 708 305 708 c 14
 281 708 l 22
 277 708 275 708 275 712 c 14
 275 1162 l 22
 275 1166 277 1168 281 1168 c 14
EndSplineSet
EndChar

StartChar: ae
Encoding: 230 230 379
Width: 497
VWidth: 1104
Flags: HMW
LayerCount: 2
Fore
SplineSet
85 288 m 0
 85 56 111 23 150 23 c 0
 190 23 226 86 226 288 c 1
 238 264 l 1
 238 46 198 -5 142 -5 c 0
 100 -5 55 19 55 282 c 0
 55 467 97 526 150 594 c 0
 187 641 226 679 226 780 c 1
 237 766 l 1
 237 644 196 610 167 571 c 0
 120 508 85 445 85 288 c 0
226 170 m 9
 226 915 l 2
 226 997 207 1023 179 1023 c 0
 132 1023 104 975 99 722 c 0
 99 719 98 716 94 716 c 2
 77 716 l 2
 73 716 71 719 71 722 c 0
 76 993 109 1055 181 1055 c 0
 229 1055 246 1011 246 907 c 2
 246 170 l 17
 226 170 l 9
434 398 m 4
 426 110 422 -10 334 -10 c 4
 261 -10 236 80 236 258 c 6
 236 793 l 6
 236 965 259 1060 335 1060 c 4
 407 1060 426 979 433 824 c 4
 439 698 438 628 438 502 c 4
 438 500 437 497 433 497 c 6
 243 497 l 5
 243 523 l 5
 411 523 l 5
 409 970 389 1033 335 1033 c 4
 279 1033 256 935 256 805 c 6
 256 245 l 6
 256 111 279 17 335 17 c 4
 394 17 405 115 413 400 c 4
 413 402 416 403 420 403 c 6
 430 403 l 6
 434 403 434 401 434 398 c 4
EndSplineSet
EndChar

StartChar: paragraph
Encoding: 182 182 380
Width: 492
VWidth: 1920
Flags: HMW
LayerCount: 2
Fore
SplineSet
382 1370 m 5
 382 -350 l 6
 382 -357 381 -360 377 -360 c 6
 357 -360 l 6
 353 -360 352 -357 352 -350 c 6
 352 1370 l 5
 282 1370 l 1
 282 -350 l 2
 282 -357 281 -360 277 -360 c 2
 257 -360 l 2
 253 -360 252 -357 252 -350 c 2
 252 600 l 1
 247 600 l 2
 143 600 50 698 50 968 c 2
 50 1032 l 2
 50 1302 143 1400 247 1400 c 2
 427 1400 l 6
 429 1400 432 1397 432 1390 c 6
 432 1380 l 6
 432 1373 431 1370 427 1370 c 6
 382 1370 l 5
EndSplineSet
EndChar

StartChar: guilsinglleft
Encoding: 8249 8249 381
Width: 630
Flags: HMW
LayerCount: 2
Fore
SplineSet
460 266 m 6
 170 529 l 6
 163 533 160 538 160 545 c 6
 160 575 l 6
 160 582 163 587 170 591 c 6
 460 824 l 6
 467 828 470 827 470 820 c 6
 470 800 l 6
 470 793 468 788 460 784 c 6
 179 560 l 261
 460 306 l 6
 468 302 470 297 470 290 c 6
 470 270 l 6
 470 263 467 262 460 266 c 6
EndSplineSet
EndChar

StartChar: guilsinglright
Encoding: 8250 8250 382
Width: 630
Flags: HW
LayerCount: 2
Fore
SplineSet
170 839 m 2
 460 576 l 2
 467 572 470 567 470 560 c 2
 470 530 l 2
 470 523 467 518 460 514 c 2
 170 281 l 2
 163 277 160 278 160 285 c 2
 160 305 l 2
 160 312 162 317 170 321 c 2
 451 545 l 257
 170 799 l 2
 162 803 160 808 160 815 c 2
 160 835 l 2
 160 842 163 843 170 839 c 2
EndSplineSet
EndChar

StartChar: mu
Encoding: 181 181 385
Width: 336
VWidth: 1104
Flags: HW
LayerCount: 2
Fore
SplineSet
82 1050 m 6
 91 1050 l 6
 98 1050 101 1047 101 1040 c 6
 101 -350 l 6
 101 -357 98 -360 91 -360 c 6
 82 -360 l 6
 75 -360 72 -357 72 -350 c 6
 72 1040 l 6
 72 1047 75 1050 82 1050 c 6
260 0 m 2
 244 0 l 2
 240 0 239 2 239 6 c 2
 239 148 l 1
 236 164 l 1
 236 1044 l 2
 236 1048 239 1050 243 1050 c 2
 260 1050 l 2
 264 1050 267 1048 267 1044 c 2
 267 6 l 2
 267 2 264 0 260 0 c 2
244 211 m 1
 244 83 211 -10 159 -10 c 0
 100 -10 92 49 92 169 c 2
 92 1024 l 2
 92 1028 89 1040 93 1040 c 2
 96 1040 l 2
 100 1040 101 1028 101 1024 c 2
 101 169 l 2
 101 87 107 17 157 17 c 0
 205 17 236 124 236 245 c 1
 244 211 l 1
EndSplineSet
EndChar

StartChar: Eth
Encoding: 208 208 387
Width: 406
VWidth: 1920
Flags: HW
LayerCount: 2
Fore
SplineSet
-41 709 m 10
 -41 729 l 22
 -41 733 -41 734 -37 734 c 14
 229 734 l 22
 233 734 233 733 233 729 c 14
 233 709 l 18
 233 705 233 704 229 704 c 10
 -37 704 l 18
 -41 704 -41 705 -41 709 c 10
EndSplineSet
Refer: 15 68 N 1 0 0 1 0 0 2
EndChar

StartChar: Dcroat
Encoding: 272 272 388
Width: 406
VWidth: 1920
Flags: HW
LayerCount: 2
Fore
SplineSet
-41 709 m 10
 -41 729 l 22
 -41 733 -41 734 -37 734 c 14
 229 734 l 22
 233 734 233 733 233 729 c 14
 233 709 l 18
 233 705 233 704 229 704 c 10
 -37 704 l 18
 -41 704 -41 705 -41 709 c 10
EndSplineSet
Refer: 15 68 N 1 0 0 1 0 0 2
EndChar

StartChar: thorn
Encoding: 254 254 389
Width: 344
VWidth: 1104
Flags: HW
LayerCount: 2
Fore
SplineSet
76 1450 m 6
 95 1450 l 2
 99 1450 101 1448 101 1444 c 2
 101 -388 l 2
 101 -392 98 -394 94 -394 c 2
 77 -394 l 2
 73 -394 70 -392 70 -388 c 2
 70 1444 l 2
 70 1448 72 1450 76 1450 c 6
92 829 m 1
 92 990 120 1070 191 1070 c 0
 242 1070 290 1029 290 845 c 2
 290 224 l 2
 290 62 255 -10 189 -10 c 0
 122 -10 90 81 90 242 c 1
 101 245 l 1
 101 124 134 19 187 19 c 0
 237 19 256 109 256 212 c 2
 256 859 l 2
 256 985 229 1041 179 1041 c 0
 128 1041 101 947 101 826 c 1
 92 829 l 1
EndSplineSet
EndChar

StartChar: Thorn
Encoding: 222 222 390
Width: 440
VWidth: 1920
Flags: HW
LayerCount: 2
Fore
SplineSet
200 1110 m 2
 317 1110 348 1062 348 882 c 6
 348 618 l 6
 348 448 317 400 200 400 c 2
 155 400 l 1
 155 10 l 2
 155 3 152 0 145 0 c 2
 135 0 l 2
 128 0 125 3 125 10 c 2
 125 1390 l 2
 125 1397 128 1400 135 1400 c 2
 145 1400 l 2
 152 1400 155 1397 155 1390 c 2
 155 1110 l 1
 200 1110 l 2
155 430 m 1
 200 430 l 6
 287 430 318 458 318 608 c 6
 318 892 l 6
 318 1042 287 1080 200 1080 c 6
 155 1080 l 1
 155 430 l 1
EndSplineSet
EndChar

StartChar: divide
Encoding: 247 247 391
Width: 600
VWidth: 2048
Flags: HW
LayerCount: 2
Fore
SplineSet
50 684 m 14
 50 704 l 22
 50 708 51 709 55 709 c 14
 545 709 l 22
 549 709 550 708 550 704 c 14
 550 684 l 22
 550 680 549 679 545 679 c 14
 55 679 l 22
 51 679 50 680 50 684 c 14
EndSplineSet
Refer: 1 46 N 1 0 0 1 163 930 2
Refer: 1 46 N 1 0 0 1 163 240 2
EndChar

StartChar: multiply
Encoding: 215 215 392
Width: 580
VWidth: 1920
Flags: HW
LayerCount: 2
Fore
SplineSet
464 550 m 14
 452 539 l 22
 450 537 448 537 446 539 c 14
 116 868 l 22
 114 870 114 873 116 875 c 14
 128 886 l 22
 130 888 132 888 134 886 c 14
 464 557 l 22
 466 555 466 552 464 550 c 14
128 539 m 10
 116 550 l 18
 114 552 114 555 116 557 c 10
 446 886 l 18
 448 888 450 888 452 886 c 10
 464 875 l 18
 466 873 466 870 464 868 c 10
 134 539 l 18
 132 537 130 537 128 539 c 10
EndSplineSet
EndChar

StartChar: Oslash
Encoding: 216 216 393
Width: 415
VWidth: 1920
Flags: HW
LayerCount: 2
Fore
SplineSet
305 1478 m 6
 322 1474 l 6
 324 1473 324 1470 324 1467 c 6
 104 -73 l 6
 104 -76 100 -76 97 -75 c 6
 80 -71 l 6
 77 -70 78 -67 78 -64 c 6
 298 1476 l 6
 298 1479 301 1479 305 1478 c 6
EndSplineSet
Refer: 26 79 N 1 0 0 1 0 0 2
EndChar

StartChar: oslash
Encoding: 248 248 394
Width: 349
VWidth: 1920
Flags: HW
LayerCount: 2
Fore
SplineSet
226 1196 m 6
 244 1194 l 6
 246 1194 246 1190 246 1187 c 6
 126 -73 l 6
 126 -76 121 -75 118 -75 c 6
 102 -73 l 6
 99 -73 100 -69 100 -66 c 6
 220 1194 l 6
 220 1196 222 1197 226 1196 c 6
EndSplineSet
Refer: 52 111 N 1 0 0 1 0 0 2
EndChar

StartChar: germandbls
Encoding: 223 223 396
Width: 453
VWidth: 1920
Flags: HW
LayerCount: 2
Fore
SplineSet
105 1188 m 2
 105 1362 116 1487 191 1487 c 0
 283 1487 296 1372 296 1205 c 0
 296 1008 266 935 266 815 c 0
 266 566 371 563 371 302 c 0
 371 90 336 -5 226 -5 c 0
 222 -5 222 -4 222 5 c 2
 222 18 l 2
 222 27 222 28 226 28 c 0
 308 29 341 124 341 302 c 0
 341 545 236 544 236 815 c 0
 236 957 266 1025 266 1205 c 4
 266 1316 261 1457 196 1457 c 4
 141 1457 136 1301 136 1168 c 6
 136 10 l 6
 136 3 134 0 130 0 c 2
 110 0 l 2
 106 0 105 3 105 10 c 2
 105 1188 l 2
EndSplineSet
EndChar

StartChar: eth
Encoding: 240 240 397
Width: 372
VWidth: 1920
Flags: HW
LayerCount: 2
Fore
SplineSet
139 1242 m 14
 130 1257 l 18
 128 1260 130 1261 133 1263 c 10
 325 1388 l 18
 328 1390 330 1389 332 1386 c 10
 341 1372 l 22
 343 1369 341 1368 338 1366 c 14
 145 1240 l 22
 142 1238 141 1239 139 1242 c 14
161 1025 m 256
 96 1025 86 909 86 793 c 258
 86 249 l 258
 86 124 101 25 181 25 c 256
 269 25 278 132 278 237 c 258
 278 873 l 258
 278 1236 253 1380 93 1441 c 0
 88 1443 87 1445 89 1449 c 2
 98 1471 l 2
 100 1475 101 1476 107 1474 c 0
 294 1403 308 1203 308 965 c 258
 308 269 l 258
 308 119 299 -5 181 -5 c 256
 85 -5 56 90 56 229 c 258
 56 807 l 258
 56 944 75 1055 153 1055 c 256
 241 1055 285 952 285 855 c 257
 278 767 l 257
 278 825 l 258
 278 917 226 1025 161 1025 c 256
EndSplineSet
EndChar

StartChar: dcroat
Encoding: 273 273 398
Width: 344
VWidth: 1920
Flags: HW
LayerCount: 2
Fore
SplineSet
136 1246 m 14
 136 1266 l 18
 136 1270 136 1271 140 1271 c 10
 356 1271 l 18
 360 1271 360 1270 360 1266 c 10
 360 1246 l 22
 360 1242 360 1241 356 1241 c 14
 140 1241 l 22
 136 1241 136 1242 136 1246 c 14
EndSplineSet
Refer: 41 100 N 1 0 0 1 0 0 2
EndChar

StartChar: Hbar
Encoding: 294 294 399
Width: 400
VWidth: 1920
Flags: HW
LayerCount: 2
Fore
SplineSet
-30 1126 m 14
 -30 1146 l 18
 -30 1150 -29 1151 -25 1151 c 10
 425 1151 l 18
 429 1151 430 1150 430 1146 c 10
 430 1126 l 22
 430 1122 429 1121 425 1121 c 14
 -25 1121 l 22
 -29 1121 -30 1122 -30 1126 c 14
EndSplineSet
Refer: 19 72 N 1 0 0 1 0 0 2
EndChar

StartChar: hbar
Encoding: 295 295 400
Width: 336
VWidth: 1920
Flags: HW
LayerCount: 2
Fore
SplineSet
2 1271 m 14
 2 1291 l 22
 2 1295 2 1296 6 1296 c 14
 242 1296 l 22
 246 1296 246 1295 246 1291 c 14
 246 1271 l 22
 246 1267 246 1266 242 1266 c 14
 6 1266 l 22
 2 1266 2 1267 2 1271 c 14
EndSplineSet
Refer: 45 104 N 1 0 0 1 0 0 2
EndChar

StartChar: Lslash
Encoding: 321 321 405
Width: 273
VWidth: 1920
Flags: HW
LayerCount: 2
Fore
SplineSet
196 957 m 6
 206 939 l 6
 208 936 207 934 204 932 c 6
 -26 799 l 6
 -29 797 -31 798 -33 801 c 6
 -43 819 l 6
 -45 822 -44 824 -41 826 c 6
 189 959 l 6
 192 961 194 960 196 957 c 6
EndSplineSet
Refer: 23 76 N 1 0 0 1 0 0 2
EndChar

StartChar: lslash
Encoding: 322 322 406
Width: 174
VWidth: 1920
Flags: HW
LayerCount: 2
Fore
SplineSet
196 957 m 6
 206 939 l 6
 208 936 207 934 204 932 c 6
 -26 799 l 6
 -29 797 -31 798 -33 801 c 6
 -43 819 l 6
 -45 822 -44 824 -41 826 c 6
 189 959 l 6
 192 961 194 960 196 957 c 6
EndSplineSet
Refer: 49 108 N 1 0 0 1 0 0 2
EndChar

StartChar: eng
Encoding: 331 331 408
Width: 336
VWidth: 1104
Flags: HW
LayerCount: 2
Fore
SplineSet
78 1050 m 2
 94 1050 l 2
 98 1050 99 1048 99 1044 c 2
 99 902 l 1
 102 886 l 1
 102 6 l 2
 102 2 100 0 96 0 c 2
 78 0 l 2
 74 0 72 2 72 6 c 2
 72 1044 l 2
 72 1048 74 1050 78 1050 c 2
267 -55 m 6
 267 -174 254 -223 141 -202 c 0
 136 -201 135 -200 135 -196 c 2
 135 -180 l 2
 135 -176 137 -175 141 -176 c 0
 228 -193 238 -158 238 -74 c 2
 238 881 l 2
 238 963 231 1033 181 1033 c 0
 133 1033 102 926 102 805 c 1
 94 839 l 1
 94 967 117 1060 189 1060 c 0
 248 1060 267 1001 267 881 c 2
 267 -55 l 6
EndSplineSet
EndChar

StartChar: Eng
Encoding: 330 330 409
Width: 400
VWidth: 960
Flags: HW
LayerCount: 2
Fore
SplineSet
307 1400 m 2
 327 1400 l 2
 331 1400 332 1399 332 1395 c 6
 332 -55 l 6
 332 -174 319 -223 206 -202 c 0
 201 -201 200 -200 200 -196 c 2
 200 -180 l 2
 200 -176 202 -175 206 -176 c 0
 293 -193 302 -158 302 -74 c 2
 302 69 l 1
 100 1248 l 1
 100 5 l 2
 100 1 99 0 95 0 c 2
 75 0 l 2
 71 0 70 1 70 5 c 2
 70 1395 l 2
 70 1399 71 1400 75 1400 c 2
 90 1400 l 2
 94 1400 98 1399 99 1395 c 2
 302 215 l 25
 302 1395 l 2
 302 1399 303 1400 307 1400 c 2
EndSplineSet
EndChar

StartChar: oe
Encoding: 339 339 410
Width: 531
VWidth: 1104
Flags: HW
LayerCount: 2
Fore
SplineSet
61 221 m 2
 61 831 l 2
 61 998 103 1060 175 1060 c 0
 247 1060 280 998 280 831 c 6
 280 221 l 6
 280 54 247 -10 175 -10 c 0
 103 -10 61 54 61 221 c 2
92 208 m 2
 92 87 121 18 175 18 c 0
 229 18 258 87 258 208 c 2
 258 843 l 2
 258 964 229 1032 175 1032 c 0
 121 1032 92 964 92 843 c 2
 92 208 l 2
468 398 m 0
 460 110 456 -10 368 -10 c 0
 295 -10 270 80 270 258 c 2
 270 793 l 2
 270 965 293 1060 369 1060 c 0
 441 1060 460 979 467 824 c 0
 473 698 472 628 472 502 c 0
 472 500 471 497 467 497 c 2
 277 497 l 1
 277 523 l 1
 445 523 l 1
 443 970 423 1033 369 1033 c 0
 313 1033 290 935 290 805 c 2
 290 245 l 2
 290 111 313 17 369 17 c 0
 428 17 439 115 447 400 c 0
 447 402 450 403 454 403 c 2
 464 403 l 2
 468 403 468 401 468 398 c 0
EndSplineSet
EndChar

StartChar: OE
Encoding: 338 338 411
Width: 596
VWidth: 1920
Flags: HW
LayerCount: 2
Fore
SplineSet
235 1400 m 262
 327 1400 l 262
 331 1400 332 1399 332 1395 c 262
 332 5 l 262
 332 1 331 0 327 0 c 262
 235 0 l 262
 112 0 55 125 55 378 c 262
 55 1031 l 262
 55 1284 92 1400 235 1400 c 262
235 1370 m 262
 111 1370 85 1245 85 1036 c 262
 85 374 l 262
 85 165 132 30 235 30 c 262
 302 30 l 261
 302 1370 l 261
 235 1370 l 262
EndSplineSet
Refer: 16 69 N 1 0 0 1 226 0 2
EndChar

StartChar: Tbar
Encoding: 358 358 413
Width: 369
VWidth: 1920
Flags: HW
LayerCount: 2
Fore
SplineSet
14 706 m 14
 14 726 l 18
 14 730 16 731 20 731 c 10
 334 731 l 18
 338 731 340 730 340 726 c 10
 340 706 l 22
 340 702 338 701 334 701 c 14
 20 701 l 22
 16 701 14 702 14 706 c 14
EndSplineSet
Refer: 31 84 N 1 0 0 1 0 0 2
EndChar

StartChar: tbar
Encoding: 359 359 414
Width: 215
VWidth: 1920
Flags: HW
LayerCount: 2
Fore
SplineSet
28 636 m 10
 28 656 l 18
 28 660 29 661 33 661 c 10
 193 661 l 22
 197 661 198 660 198 656 c 14
 198 636 l 22
 198 632 197 631 193 631 c 14
 33 631 l 18
 29 631 28 632 28 636 c 10
EndSplineSet
Refer: 57 116 N 1 0 0 1 0 0 2
EndChar

StartChar: uni0394
Encoding: 916 916 430
Width: 393
VWidth: 960
Flags: HW
LayerCount: 2
Fore
SplineSet
41 0 m 2
 37 0 38 2 38 5 c 6
 168 1395 l 2
 169 1398 171 1400 175 1400 c 2
 206 1400 l 2
 210 1400 211 1398 212 1395 c 2
 356 5 l 2
 357 2 357 0 353 0 c 2
 41 0 l 2
67 30 m 1
 318 30 l 1
 190 1345 l 1
 67 30 l 1
EndSplineSet
EndChar

StartChar: uni03A9
Encoding: 937 937 431
Width: 498
VWidth: 1920
Flags: HW
LayerCount: 2
Fore
SplineSet
271 38 m 4
 343 150 374 314 374 504 c 2
 374 1045 l 2
 374 1244 339 1387 227 1387 c 0
 115 1387 79 1244 79 1045 c 2
 79 504 l 2
 79 314 110 148 184 37 c 4
 188 31 191 34 191 28 c 6
 191 5 l 2
 191 1 191 0 187 0 c 2
 57 0 l 2
 53 0 51 1 51 5 c 2
 51 24 l 6
 51 28 53 30 57 30 c 6
 164 30 l 5
 83 154 49 326 49 524 c 2
 49 1041 l 2
 49 1284 86 1417 227 1417 c 0
 368 1417 404 1284 404 1041 c 2
 404 524 l 2
 404 326 368 154 288 30 c 5
 397 30 l 6
 401 30 401 28 401 24 c 6
 401 5 l 2
 401 1 401 0 397 0 c 2
 267 0 l 2
 263 0 261 1 261 5 c 2
 261 28 l 6
 261 34 266 30 271 38 c 4
EndSplineSet
EndChar

StartChar: pi
Encoding: 960 960 432
Width: 407
VWidth: 1920
Flags: HW
LayerCount: 2
Fore
SplineSet
126 1030 m 2
 126 5 l 2
 126 1 126 0 122 0 c 2
 102 0 l 2
 98 0 96 1 96 5 c 2
 96 1030 l 2
 96 1034 98 1035 102 1035 c 2
 122 1035 l 2
 126 1035 126 1034 126 1030 c 2
370 28 m 2
 370 5 l 2
 370 1 370 0 366 -1 c 0
 262 -20 246 22 246 126 c 258
 246 1030 l 2
 246 1034 246 1035 250 1035 c 2
 270 1035 l 2
 274 1035 276 1034 276 1030 c 2
 276 104 l 258
 276 40 291 13 366 32 c 4
 369 33 370 31 370 28 c 2
38 1024 m 10
 38 1045 l 18
 38 1049 38 1050 42 1050 c 10
 338 1050 l 18
 342 1050 342 1049 342 1045 c 10
 342 1024 l 18
 342 1020 342 1020 338 1020 c 10
 42 1020 l 18
 38 1020 38 1020 38 1024 c 10
EndSplineSet
EndChar

StartChar: minute
Encoding: 8242 8242 433
Width: 889
VWidth: 1920
Flags: HW
LayerCount: 2
Fore
SplineSet
40 930 m 6
 30 930 l 6
 26 930 25 934 26 940 c 6
 87 1410 l 6
 88 1417 89 1420 93 1420 c 6
 133 1420 l 6
 137 1420 138 1416 137 1410 c 6
 48 940 l 6
 47 934 44 930 40 930 c 6
EndSplineSet
EndChar

StartChar: Euro
Encoding: 8364 8364 435
Width: 505
VWidth: 1920
Flags: HW
LayerCount: 2
Fore
SplineSet
-32 611 m 10
 -32 631 l 18
 -32 635 -32 636 -28 636 c 10
 248 636 l 18
 252 636 252 635 252 631 c 10
 252 611 l 18
 252 607 252 606 248 606 c 10
 -28 606 l 18
 -32 606 -32 607 -32 611 c 10
-32 754 m 10
 -32 774 l 22
 -32 778 -32 779 -28 779 c 14
 248 779 l 22
 252 779 252 778 252 774 c 14
 252 754 l 18
 252 750 252 749 248 749 c 10
 -28 749 l 18
 -32 749 -32 750 -32 754 c 10
395 353 m 256
 395 226 385 -18 243 -18 c 256
 105 -18 90 129 90 359 c 258
 90 1042 l 258
 90 1292 115 1418 238 1418 c 256
 390 1418 390 1252 390 1126 c 256
 390 1122 389 1122 385 1122 c 258
 365 1122 l 258
 361 1122 360.027971344 1122.0000978 360 1126 c 256
 359 1269 346 1388 238 1388 c 256
 140 1388 120 1241 120 1046 c 258
 120 354 l 258
 120 149 143 12 243 12 c 256
 344 12 365 186.996987979 365 353 c 256
 365 357 366 358 370 358 c 258
 390 358 l 258
 394 358 395 357 395 353 c 256
EndSplineSet
EndChar

StartChar: uni2116
Encoding: 8470 8470 436
Width: 695
VWidth: 1920
Flags: HW
LayerCount: 2
Fore
SplineSet
420 5 m 14
 420 25 l 22
 420 29 420 30 424 30 c 14
 631 30 l 18
 635 30 635 29 635 25 c 10
 635 5 l 18
 635 1 635 0 631 0 c 10
 424 0 l 22
 420 0 420 1 420 5 c 14
EndSplineSet
Refer: 132 8304 N 1 0 0 1 360 -295 2
Refer: 25 78 N 1 0 0 1 0 0 2
EndChar

StartChar: trademark
Encoding: 8482 8482 437
Width: 611
VWidth: 1920
Flags: HW
LayerCount: 2
Fore
SplineSet
43 1400 m 2
 264 1400 l 2
 266 1400 267 1398 267 1394 c 2
 267 1376 l 2
 267 1372 266 1370 264 1370 c 2
 167 1370 l 257
 167 566 l 2
 167 562 166 560 164 560 c 2
 143 560 l 2
 141 560 140 562 140 566 c 2
 140 1370 l 257
 43 1370 l 2
 41 1370 40 1372 40 1376 c 2
 40 1394 l 2
 40 1398 41 1400 43 1400 c 2
346 1372 m 257
 346 566 l 2
 346 562 345 560 343 560 c 2
 324 560 l 2
 322 560 321 562 321 566 c 2
 321 1394 l 2
 321 1398 322 1400 324 1400 c 2
 367 1400 l 2
 369 1400 370 1398 371 1394 c 2
 441 670 l 257
 506 1394 l 6
 507 1398 508 1400 510 1400 c 6
 558 1400 l 2
 560 1400 561 1398 561 1394 c 2
 561 566 l 2
 561 562 560 560 558 560 c 2
 533 560 l 2
 531 560 530 562 530 566 c 2
 530 1310 l 257
 454 566 l 2
 453 562 452 560 450 560 c 2
 432 560 l 2
 430 560 429 562 428 566 c 2
 346 1372 l 257
EndSplineSet
EndChar

StartChar: partialdiff
Encoding: 8706 8706 438
Width: 432
VWidth: 1920
Flags: HW
LayerCount: 2
Fore
SplineSet
194 856 m 256
 124 856 115 754 115 662 c 258
 115 198 l 262
 115 78 126 12 210 12 c 260
 294 12 307 121 307 236 c 262
 307 793 l 258
 307 1186 295 1358 124 1418 c 0
 118.918558584 1419.7829619 118 1421 120 1425 c 2
 127 1442 l 2
 129 1446 130 1446 136 1444 c 0
 323 1373 337 1194 337 756 c 258
 337 268 l 258
 337 118 334 -18 210 -18 c 260
 109 -18 85 54 85 178 c 258
 85 678 l 258
 85 800 110 886 194 886 c 256
 272 886 314 822 314 725 c 257
 307 630 l 257
 307 695 l 258
 307 787 269 856 194 856 c 256
EndSplineSet
EndChar

StartChar: summation
Encoding: 8721 8721 439
Width: 434
VWidth: 1920
Flags: HW
LayerCount: 2
Fore
SplineSet
350 505 m 2
 116 -330 l 1
 379 -330 l 2
 383 -330 384 -333 384 -340 c 2
 384 -350 l 2
 384 -357 383 -360 379 -360 c 2
 79 -360 l 2
 75 -360 75 -358 78 -350 c 2
 316 520 l 1
 78 1390 l 2
 75 1398 75 1400 79 1400 c 2
 379 1400 l 2
 383 1400 384 1397 384 1390 c 2
 384 1380 l 2
 384 1373 383 1370 379 1370 c 2
 116 1370 l 5
 350 535 l 2
 354 523 354 517 350 505 c 2
EndSplineSet
EndChar

StartChar: minus
Encoding: 8722 8722 440
Width: 585
Flags: HW
LayerCount: 2
Fore
SplineSet
65 248 m 10
 65 267 l 22
 65 271 66 272 70 272 c 14
 515 272 l 22
 519 272 520 271 520 267 c 14
 520 248 l 18
 520 244 519 242 515 242 c 10
 70 242 l 18
 66 242 65 244 65 248 c 10
EndSplineSet
EndChar

StartChar: integral
Encoding: 8747 8747 441
Width: 182
VWidth: 960
Flags: HW
LayerCount: 2
Fore
SplineSet
95 -49 m 2
 95 -153 88 -200 5 -176 c 0
 1.03915682794 -174.85469595 0 -174 0 -170 c 2
 0 -145 l 6
 0 -142 1 -140 5 -141 c 4
 60 -150 65 -133 65 -69 c 6
 65 1337 l 2
 65 1441 67 1478 136 1464 c 0
 140.997195098 1462.98607636 142 1462 142 1458 c 2
 142 1433 l 2
 142 1430 140 1427 134 1429 c 0
 101 1437 95 1420 95 1357 c 2
 95 -49 l 2
EndSplineSet
EndChar

StartChar: radical
Encoding: 8730 8730 443
Width: 448
VWidth: 1920
Flags: HMW
LayerCount: 2
Fore
SplineSet
221 1050 m 2
 225 1050 227 1046 228 1040 c 2
 287 178 l 5
 387 1590 l 2
 387 1597 387 1600 391 1600 c 2
 410 1600 l 2
 414 1600 416 1597 415 1590 c 2
 292 -143 l 2
 291 -151 290 -151 288 -143 c 2
 194 1020 l 1
 90 1020 l 2
 86 1020 85 1023 85 1030 c 2
 85 1040 l 2
 85 1047 86 1050 90 1050 c 2
 221 1050 l 2
EndSplineSet
EndChar

StartChar: infinity
Encoding: 8734 8734 444
Width: 696
VWidth: 1331
Flags: HMW
LayerCount: 2
Fore
SplineSet
189 482 m 4
 99 482 70 567 70 664 c 0
 70 761 99 844 189 844 c 4
 266 844 317 759 349 679 c 5
 381 759 431 844 508 844 c 4
 598 844 626 761 626 664 c 0
 626 567 598 482 508 482 c 4
 431 482 371 567 349 647 c 1
 316 567 266 482 189 482 c 4
189 512 m 4
 263 512 304 602 331 664 c 1
 306 725 263 814 189 814 c 4
 122 814 100 729 100 664 c 0
 100 600 122 512 189 512 c 4
508 512 m 4
 575 512 596 600 596 664 c 0
 596 729 575 814 508 814 c 4
 434 814 391 725 366 664 c 1
 381 603 434 512 508 512 c 4
EndSplineSet
EndChar

StartChar: product
Encoding: 8719 8719 445
Width: 590
VWidth: 1920
Flags: HW
LayerCount: 2
Fore
SplineSet
470 1400 m 2
 474 1400 475 1397 475 1390 c 2
 475 10 l 2
 475 3 474 0 470 0 c 2
 450 0 l 6
 446 0 445 3 445 10 c 6
 445 1370 l 261
 145 1370 l 257
 145 10 l 2
 145 3 144 0 140 0 c 2
 120 0 l 2
 116 0 115 3 115 10 c 2
 115 1390 l 18
 115 1397 116 1400 120 1400 c 10
 470 1400 l 2
EndSplineSet
EndChar

StartChar: uni2219
Encoding: 8729 8729 446
Width: 270
Flags: HW
LayerCount: 2
Fore
SplineSet
60 675 m 4
 60 719 91 750 135 750 c 4
 179 750 210 719 210 675 c 4
 210 631 182 600 138 600 c 4
 94 600 60 631 60 675 c 4
EndSplineSet
EndChar

StartChar: approxequal
Encoding: 8776 8776 447
Width: 498
VWidth: 1210
Flags: HW
LayerCount: 2
Fore
SplineSet
155 635 m 260
 94 635 64 595.125 54 539 c 0
 53.4737664534 536.04651422 52 534 49 534 c 2
 34 534 l 2
 30 534 29 536 29 539 c 0
 31 608 85 665 155 665 c 256
 245 665 268 551 344 551 c 260
 405 551 441 600.875 444 647 c 0
 444.194710545 649.993674632 447 652 450 652 c 2
 464 652 l 2
 468 652 469 651 469 647 c 0
 467 578 414 521 344 521 c 256
 254 521 241 635 155 635 c 260
155 450 m 256
 94 450 64 410.125 54 354 c 0
 53.4737664534 351.04651422 52 349 49 349 c 2
 34 349 l 2
 30 349 29 351 29 354 c 0
 31 423 85 480 155 480 c 256
 245 480 268 366 344 366 c 256
 405 366 441 415.875 444 462 c 0
 444.194710545 464.993674632 447 467 450 467 c 2
 464 467 l 2
 468 467 469 466 469 462 c 0
 467 393 414 336 344 336 c 256
 254 336 241 450 155 450 c 256
EndSplineSet
EndChar

StartChar: notequal
Encoding: 8800 8800 448
Width: 530
VWidth: 1920
Flags: HW
LayerCount: 2
Fore
SplineSet
484 725 m 2
 495 714 l 2
 497 712 497 709 495 707 c 2
 73 275 l 2
 71 273 68 273 66 275 c 2
 55 286 l 2
 53 288 53 291 55 293 c 2
 477 725 l 2
 479 727 482 727 484 725 c 2
EndSplineSet
Refer: 83 61 S 1 0 0 1 0 0 2
EndChar

StartChar: lessequal
Encoding: 8804 8804 449
Width: 520
VWidth: 1920
Flags: HW
LayerCount: 2
Fore
SplineSet
58 354 m 10
 58 374 l 22
 58 378 58 379 62 379 c 14
 448 379 l 22
 452 379 452 378 452 374 c 14
 452 354 l 18
 452 350 452 349 448 349 c 10
 62 349 l 18
 58 349 58 350 58 354 c 10
EndSplineSet
Refer: 84 60 N 1 0 0 1 0 150 2
EndChar

StartChar: greaterequal
Encoding: 8805 8805 450
Width: 520
VWidth: 1920
Flags: HW
LayerCount: 2
Fore
SplineSet
48 354 m 14
 48 374 l 22
 48 378 48 379 52 379 c 14
 438 379 l 22
 442 379 442 378 442 374 c 14
 442 354 l 22
 442 350 442 349 438 349 c 14
 52 349 l 22
 48 349 48 350 48 354 c 14
EndSplineSet
Refer: 85 62 N 1 0 0 1 0 150 2
EndChar

StartChar: lozenge
Encoding: 9674 9674 451
Width: 650
Flags: HW
LayerCount: 2
Fore
SplineSet
331 40 m 2
 81 702 l 2
 76 710 76 714 81 722 c 2
 331 1382 l 2
 337 1391 337 1392 343 1382 c 2
 569 722 l 2
 573 714 573 710 569 702 c 2
 343 40 l 2
 338 30 337 31 331 40 c 2
336 123 m 5
 533 712 l 1
 331 1290 l 1
 117 712 l 1
 336 123 l 5
EndSplineSet
EndChar

StartChar: uniF8EA
Encoding: 63722 63722 452
Width: 542
VWidth: 1534
Flags: HW
LayerCount: 2
Fore
SplineSet
39 1400 m 6
 231 1400 l 6
 232 1400 233 1399 233 1398 c 6
 233 1369 l 6
 233 1368 232 1367 231 1367 c 6
 155 1367 l 261
 155 1150 l 6
 155 1149 154 1148 153 1148 c 6
 117 1148 l 6
 116 1148 115 1149 115 1150 c 6
 115 1367 l 261
 39 1367 l 6
 38 1367 37 1368 37 1369 c 6
 37 1398 l 6
 37 1399 38 1400 39 1400 c 6
299 1352 m 261
 299 1150 l 6
 299 1149 298 1148 297 1148 c 6
 267 1148 l 6
 266 1148 265 1149 265 1150 c 6
 265 1398 l 6
 265 1399 266 1400 267 1400 c 6
 317 1400 l 6
 318 1400 319 1399 319 1398 c 6
 389 1224 l 261
 461 1398 l 6
 461 1399 462 1400 463 1400 c 6
 503 1400 l 6
 504 1400 505 1399 505 1398 c 6
 505 1150 l 6
 505 1149 504 1148 503 1148 c 6
 471 1148 l 6
 470 1148 469 1149 469 1150 c 6
 469 1334 l 261
 393 1150 l 6
 393 1149 392 1148 391 1148 c 6
 380 1148 l 6
 379 1148 377 1149 377 1150 c 6
 299 1352 l 261
EndSplineSet
EndChar

StartChar: uniF8E8
Encoding: 63720 63720 453
Width: 492
VWidth: 1508
Flags: HW
LayerCount: 2
Fore
SplineSet
185 1317 m 261
 185 1233 l 261
 257 1233 l 262
 287 1233 303 1245 303 1267 c 262
 303 1283 l 262
 303 1305 287 1317 257 1317 c 262
 185 1317 l 261
257 1343 m 262
 303 1343 339 1322 339 1279 c 262
 339 1275 l 262
 339 1232 303 1213 257 1213 c 261
 257 1225 l 261
 303 1225 337 1210 337 1167 c 262
 337 1151 l 262
 337 1131 343 1115 351 1103 c 4
 353 1101 352 1100 352 1099 c 6
 352 1093 l 6
 352 1091 353 1091 351 1091 c 6
 318 1091 l 6
 316 1091 316 1091 315 1093 c 4
 305 1111 303 1135 303 1151 c 262
 303 1173 l 262
 303 1195 287 1207 257 1207 c 262
 185 1207 l 261
 185 1093 l 6
 185 1091 185 1091 183 1091 c 6
 153 1091 l 6
 151 1091 151 1091 151 1093 c 6
 151 1341 l 6
 151 1343 151 1343 153 1343 c 6
 257 1343 l 262
455 1207 m 4
 455 1092 360 999 245 999 c 4
 130 999 37 1092 37 1207 c 4
 37 1322 130 1417 245 1417 c 4
 360 1417 455 1322 455 1207 c 4
429 1207 m 4
 429 1309 347 1391 245 1391 c 4
 143 1391 63 1309 63 1207 c 4
 63 1105 143 1025 245 1025 c 4
 347 1025 429 1105 429 1207 c 4
EndSplineSet
EndChar

StartChar: uniF8E9
Encoding: 63721 63721 454
Width: 492
VWidth: 1508
Flags: HW
LayerCount: 2
Fore
SplineSet
347 1172 m 260
 343 1120 309 1076 243 1076 c 260
 173 1076 137 1125 137 1193 c 262
 137 1223 l 262
 137 1291 173 1341 243 1341 c 260
 309 1341 339 1301 341 1257 c 260
 341 1255 342 1255 340 1255 c 262
 313 1255 l 262
 311 1255 311 1255 311 1257 c 260
 311 1291 284 1315 245 1315 c 260
 199 1315 173 1273 173 1225 c 262
 173 1191 l 262
 173 1143 195 1101 245 1101 c 260
 287 1101 317 1134 317 1172 c 260
 317 1174 317 1173 319 1173 c 262
 345 1173 l 262
 347 1173 347 1174 347 1172 c 260
455 1207 m 4
 455 1092 360 999 245 999 c 4
 130 999 37 1092 37 1207 c 4
 37 1322 130 1417 245 1417 c 4
 360 1417 455 1322 455 1207 c 4
429 1207 m 4
 429 1309 347 1391 245 1391 c 4
 143 1391 63 1309 63 1207 c 4
 63 1105 143 1025 245 1025 c 4
 347 1025 429 1105 429 1207 c 4
EndSplineSet
EndChar

StartChar: uni1E9E
Encoding: 7838 7838 457
Width: 496
VWidth: 1920
Flags: HW
LayerCount: 2
Fore
SplineSet
94 1102 m 2
 94 1304 112 1405 222 1405 c 0
 313 1405 353 1299 388 1175 c 0
 391 1164 391 1157 389 1148 c 2
 305 712 l 1
 365 637 435 564 435 334 c 0
 435 122 389 -5 309 -5 c 0
 260 -5 226 33 203 88 c 0
 198 100 190 121 190 127 c 2
 190 160 l 2
 190 175 201 148 211 129 c 4
 237 77 258 25 309 25 c 4
 367 25 405 165 405 334 c 0
 405 532 365 598 277 693 c 0
 270 701 268 699 270 708 c 2
 360 1152 l 1
 349 1238 301 1375 222 1375 c 0
 128 1375 124 1268 124 1092 c 2
 124 5 l 2
 124 1 124 0 120 0 c 2
 99 0 l 2
 95 0 94 1 94 5 c 2
 94 1102 l 2
EndSplineSet
EndChar
